<svg width="40" height="40" viewBox="0 0 40 40" fill="none" xmlns="http://www.w3.org/2000/svg">
<path d="M34 0H6C2.68629 0 0 2.68629 0 6V34C0 37.3137 2.68629 40 6 40H34C37.3137 40 40 37.3137 40 34V6C40 2.68629 37.3137 0 34 0Z" fill="#637182" fill-opacity="0.17"/>
<path d="M19.243 11.175L12.257 13.795C11.95 13.9109 11.6857 14.1175 11.4991 14.3875C11.3126 14.6575 11.2128 14.9778 11.213 15.306V22.866C11.2129 23.1651 11.2962 23.4584 11.4534 23.7129C11.6106 23.9674 11.8355 24.1731 12.103 24.307L19.089 27.8C19.3125 27.9127 19.5592 27.9714 19.8095 27.9714C20.0598 27.9714 20.3066 27.9127 20.53 27.8L27.513 24.307C27.7807 24.1733 28.0057 23.9676 28.163 23.7131C28.3202 23.4585 28.4033 23.1652 28.403 22.866V15.306C28.4032 14.9782 28.3033 14.6582 28.1167 14.3888C27.9302 14.1193 27.6658 13.9132 27.359 13.798L20.375 11.179C20.0111 11.0383 19.608 11.0368 19.243 11.175ZM19.813 12.687L26.799 15.307V15.317L19.813 18.154L12.825 15.316V15.306L19.813 12.687ZM12.825 17.056L19.005 19.568V25.956L12.825 22.866V17.056ZM20.617 25.956V19.568L26.797 17.056V22.863L20.617 25.956Z" fill="#637182" fill-opacity="0.55"/>
</svg>
