<svg width="20" height="20" viewBox="0 0 20 20" fill="none" xmlns="http://www.w3.org/2000/svg">
<path d="M12.111 11.868H10.633C10.5192 11.4713 10.351 11.0924 10.133 10.742L11.202 9.66997C11.2546 9.61665 11.284 9.54481 11.284 9.46997C11.284 9.39513 11.2546 9.32329 11.202 9.26997L9.98503 8.05397C9.93172 8.00145 9.85988 7.97201 9.78503 7.97201C9.71019 7.97201 9.63835 8.00145 9.58503 8.05397L8.47703 9.15397C8.13464 8.96121 7.76855 8.81396 7.38803 8.71597V7.14097C7.38804 7.10294 7.38048 7.06529 7.36581 7.03021C7.35114 6.99512 7.32964 6.96331 7.30256 6.9366C7.27549 6.9099 7.24338 6.88884 7.20809 6.87466C7.17281 6.86047 7.13506 6.85344 7.09703 6.85397H5.37703C5.30092 6.85397 5.22792 6.88421 5.17409 6.93803C5.12027 6.99185 5.09003 7.06485 5.09003 7.14097V8.71997C4.70952 8.81796 4.34343 8.96521 4.00103 9.15797L2.89403 8.05397C2.84071 8.00145 2.76888 7.97201 2.69403 7.97201C2.61919 7.97201 2.54735 8.00145 2.49403 8.05397L1.27703 9.26697C1.22451 9.32029 1.19507 9.39213 1.19507 9.46697C1.19507 9.54181 1.22451 9.61365 1.27703 9.66697L2.34603 10.739C2.12811 11.0894 1.95984 11.4683 1.84603 11.865H0.364034C0.326175 11.865 0.288691 11.8725 0.253739 11.887C0.218788 11.9016 0.18706 11.9229 0.160384 11.9497C0.133707 11.9766 0.112608 12.0085 0.0983031 12.0435C0.0839982 12.0786 0.0767695 12.1161 0.0770333 12.154V13.874C0.0770333 13.9501 0.107271 14.0231 0.161094 14.0769C0.214916 14.1307 0.287916 14.161 0.364034 14.161H1.76403C1.86099 14.592 2.01927 15.0069 2.23403 15.393L1.27703 16.354C1.22451 16.4073 1.19507 16.4791 1.19507 16.554C1.19507 16.6288 1.22451 16.7007 1.27703 16.754L2.49203 17.969C2.54535 18.0215 2.61719 18.0509 2.69203 18.0509C2.76688 18.0509 2.83871 18.0215 2.89203 17.969L3.82003 17.043C4.21269 17.2882 4.64068 17.4717 5.08903 17.587V18.879C5.08903 18.9551 5.11927 19.0281 5.17309 19.0819C5.22692 19.1357 5.29992 19.166 5.37603 19.166H7.09703C7.13472 19.166 7.17204 19.1585 7.20686 19.1441C7.24168 19.1297 7.27332 19.1086 7.29997 19.0819C7.32662 19.0553 7.34776 19.0236 7.36219 18.9888C7.37661 18.954 7.38403 18.9167 7.38403 18.879V17.596C7.83239 17.4807 8.26038 17.2972 8.65303 17.052L9.58103 17.978C9.63435 18.0305 9.70619 18.0599 9.78103 18.0599C9.85588 18.0599 9.92771 18.0305 9.98103 17.978L11.196 16.763C11.2486 16.7097 11.278 16.6378 11.278 16.563C11.278 16.4881 11.2486 16.4163 11.196 16.363L10.233 15.397C10.4478 15.0109 10.6061 14.596 10.703 14.165H12.103C12.1791 14.165 12.2521 14.1347 12.306 14.0809C12.3598 14.0271 12.39 13.9541 12.39 13.878V12.154C12.3898 12.0794 12.3605 12.0078 12.3085 11.9544C12.2564 11.9011 12.1856 11.87 12.111 11.868ZM6.23703 15.737C5.72713 15.737 5.22866 15.5858 4.80463 15.3026C4.38061 15.0194 4.05005 14.6169 3.85473 14.1458C3.65942 13.6748 3.60811 13.1565 3.7073 12.6563C3.80649 12.1561 4.05172 11.6966 4.412 11.3358C4.77227 10.9749 5.23143 10.729 5.73145 10.629C6.23146 10.5291 6.74989 10.5796 7.22121 10.7741C7.69252 10.9687 8.09558 11.2987 8.37945 11.7222C8.66331 12.1458 8.81524 12.6441 8.81603 13.154C8.81603 13.8383 8.54445 14.4947 8.0609 14.979C7.57736 15.4633 6.92139 15.7359 6.23703 15.737Z" fill="#7AD676"/>
<path d="M18.962 5.79698C18.9475 5.76253 18.9259 5.73148 18.8987 5.70583C18.8715 5.68017 18.8393 5.66047 18.804 5.64798L17.81 5.26298C17.8277 4.98148 17.8123 4.69888 17.764 4.42098L18.764 3.97698C18.7985 3.96245 18.8295 3.94089 18.8552 3.91369C18.8808 3.88648 18.9005 3.85423 18.913 3.81898C18.927 3.78365 18.9337 3.74585 18.9327 3.70787C18.9317 3.66988 18.9229 3.6325 18.907 3.59798L18.378 2.41298C18.3453 2.34439 18.2878 2.29078 18.217 2.26298C18.1472 2.23431 18.0689 2.23431 17.999 2.26298L16.965 2.72398C16.7908 2.52157 16.5946 2.33912 16.38 2.17998L16.787 1.11398C16.801 1.07917 16.8077 1.04186 16.8067 1.00436C16.8056 0.966859 16.7969 0.929971 16.781 0.895981C16.7494 0.827195 16.693 0.772899 16.623 0.743981L15.408 0.279981C15.3732 0.266005 15.3359 0.259326 15.2984 0.260358C15.2609 0.26139 15.224 0.270111 15.19 0.28598C15.1549 0.300003 15.1232 0.321347 15.097 0.348592C15.0708 0.375837 15.0507 0.408356 15.038 0.443981L14.625 1.50998C14.3587 1.48456 14.0903 1.48926 13.825 1.52398L13.367 0.489981C13.3358 0.420933 13.2785 0.367093 13.2076 0.340282C13.1367 0.313471 13.0581 0.31588 12.989 0.346981L11.8 0.873981C11.7312 0.905456 11.6773 0.962618 11.6501 1.03325C11.6228 1.10388 11.6242 1.18238 11.654 1.25198L12.098 2.25198C11.8741 2.42653 11.6726 2.62805 11.498 2.85198L10.512 2.46298C10.4411 2.43576 10.3622 2.43761 10.2926 2.46812C10.2229 2.49863 10.1681 2.55534 10.14 2.62598L9.67604 3.84098C9.66206 3.87579 9.65538 3.9131 9.65641 3.9506C9.65745 3.9881 9.66617 4.02499 9.68204 4.05898C9.69689 4.09358 9.71852 4.12486 9.74566 4.15096C9.7728 4.17707 9.80489 4.19748 9.84004 4.21098L10.78 4.57198C10.7399 4.87332 10.7399 5.17864 10.78 5.47998L9.88604 5.87998C9.81688 5.91206 9.76253 5.96927 9.73404 6.03998C9.70727 6.11061 9.70943 6.18893 9.74004 6.25798L10.27 7.44698C10.3011 7.5162 10.3582 7.57037 10.429 7.5977C10.4998 7.62504 10.5785 7.62334 10.648 7.59298L11.502 7.21198C11.6992 7.46559 11.9307 7.69043 12.19 7.87998L11.858 8.73998C11.8312 8.81162 11.8334 8.8909 11.864 8.96098C11.8961 9.03014 11.9533 9.08448 12.024 9.11298L13.236 9.57698C13.2678 9.59008 13.3017 9.59688 13.336 9.59698C13.3765 9.59686 13.4164 9.58799 13.453 9.57098C13.5215 9.53986 13.575 9.48313 13.602 9.41298L13.934 8.55098C14.2532 8.58306 14.5753 8.5706 14.891 8.51398L15.272 9.36798C15.3029 9.43738 15.36 9.49172 15.4309 9.51909C15.5017 9.54645 15.5805 9.54462 15.65 9.51398L16.836 8.98398C16.8705 8.9688 16.9016 8.94697 16.9276 8.91974C16.9536 8.89251 16.974 8.86042 16.9875 8.8253C17.0011 8.79018 17.0076 8.75273 17.0066 8.71509C17.0057 8.67746 16.9973 8.64038 16.982 8.60598L16.582 7.71198C16.8129 7.51398 17.0169 7.28673 17.189 7.03598L18.129 7.39698C18.1642 7.41048 18.2017 7.41689 18.2394 7.41585C18.2771 7.4148 18.3142 7.40632 18.3485 7.3909C18.3829 7.37547 18.4139 7.3534 18.4398 7.32596C18.4656 7.29851 18.4857 7.26624 18.499 7.23098L18.963 6.01898C18.978 5.98385 18.9856 5.94605 18.9854 5.90788C18.9852 5.86971 18.9773 5.83198 18.962 5.79698ZM16.168 5.75398C16.0226 6.13574 15.7647 6.46437 15.4285 6.69648C15.0923 6.92859 14.6936 7.05325 14.285 7.05398C14.0372 7.05307 13.7916 7.00733 13.56 6.91898C13.3126 6.82397 13.0864 6.68116 12.8941 6.4987C12.7019 6.31624 12.5475 6.09771 12.4398 5.85558C12.332 5.61345 12.273 5.35247 12.2661 5.08753C12.2592 4.82259 12.3045 4.55889 12.3995 4.31148C12.4945 4.06407 12.6374 3.8378 12.8198 3.64558C13.0023 3.45336 13.2208 3.29896 13.4629 3.1912C13.7051 3.08344 13.9661 3.02442 14.231 3.01752C14.4959 3.01062 14.7596 3.05597 15.007 3.15098C15.5057 3.34279 15.9081 3.72447 16.1259 4.21238C16.3437 4.70029 16.3592 5.25465 16.169 5.75398H16.168Z" fill="#7AD676"/>
</svg>
