<svg width="20" height="20" viewBox="0 0 20 20" fill="none" xmlns="http://www.w3.org/2000/svg">
<path d="M12.0041 11.94H10.5391C10.4249 11.5467 10.2566 11.1711 10.0391 10.824L11.0981 9.76203C11.1511 9.70897 11.1809 9.63703 11.1809 9.56203C11.1809 9.48703 11.1511 9.41509 11.0981 9.36203L9.89808 8.16203C9.84501 8.10903 9.77308 8.07925 9.69807 8.07925C9.62307 8.07925 9.55114 8.10903 9.49808 8.16203L8.39807 9.26203C8.05887 9.0707 7.69614 8.92446 7.31907 8.82703V7.25403C7.31881 7.17862 7.28867 7.10638 7.23525 7.05315C7.18183 6.99992 7.10949 6.97003 7.03407 6.97003H5.33407C5.25883 6.9703 5.18675 7.0003 5.13355 7.0535C5.08034 7.10671 5.05034 7.17879 5.05007 7.25403V8.81903C4.67301 8.91646 4.31028 9.0627 3.97108 9.25403L2.87107 8.15403C2.81801 8.10103 2.74608 8.07125 2.67108 8.07125C2.59607 8.07125 2.52414 8.10103 2.47108 8.15403L1.27107 9.35403C1.21807 9.40709 1.1883 9.47903 1.1883 9.55403C1.1883 9.62903 1.21807 9.70097 1.27107 9.75403L2.33007 10.816C2.11254 11.1631 1.94426 11.5387 1.83007 11.932H0.360075C0.322136 11.9322 0.284603 11.9398 0.249677 11.9547C0.214752 11.9695 0.183136 11.9911 0.156684 12.0183C0.130232 12.0455 0.109477 12.0777 0.0956347 12.113C0.0817926 12.1484 0.0751428 12.1861 0.0760748 12.224V13.924C0.0763383 13.9993 0.106344 14.0714 0.159548 14.1246C0.212751 14.1778 0.284834 14.2078 0.360075 14.208H1.75207C1.84823 14.6352 2.00516 15.0464 2.21808 15.429L1.26407 16.386C1.21107 16.4391 1.1813 16.511 1.1813 16.586C1.1813 16.661 1.21107 16.733 1.26407 16.786L2.46407 17.986C2.51714 18.039 2.58907 18.0688 2.66408 18.0688C2.73908 18.0688 2.81101 18.039 2.86407 17.986L3.78408 17.069C4.17328 17.3124 4.59756 17.4945 5.04207 17.609V18.89C5.04234 18.9653 5.07234 19.0374 5.12555 19.0906C5.17875 19.1438 5.25083 19.1738 5.32607 19.174H7.02607C7.10132 19.1738 7.1734 19.1438 7.2266 19.0906C7.2798 19.0374 7.30981 18.9653 7.31007 18.89V17.617C7.75459 17.5025 8.17887 17.3204 8.56807 17.077L9.48808 17.994C9.54114 18.047 9.61307 18.0768 9.68807 18.0768C9.76308 18.0768 9.83501 18.047 9.88807 17.994L11.0881 16.794C11.1411 16.741 11.1709 16.669 11.1709 16.594C11.1709 16.519 11.1411 16.4471 11.0881 16.394L10.1341 15.437C10.347 15.0544 10.5039 14.6432 10.6001 14.216H11.9921C12.0673 14.2158 12.1394 14.1858 12.1926 14.1326C12.2458 14.0794 12.2758 14.0073 12.2761 13.932V12.232C12.278 12.1574 12.2506 12.0851 12.1997 12.0305C12.1489 11.9759 12.0786 11.9434 12.0041 11.94ZM6.18207 15.77C5.67655 15.77 5.18237 15.6201 4.76204 15.3393C4.34171 15.0584 4.0141 14.6592 3.82064 14.1922C3.62718 13.7251 3.57656 13.2112 3.67519 12.7154C3.77381 12.2196 4.01725 11.7641 4.37471 11.4067C4.73217 11.0492 5.18761 10.8058 5.68342 10.7071C6.17924 10.6085 6.69317 10.6591 7.16021 10.8526C7.62726 11.0461 8.02645 11.3737 8.30731 11.794C8.58817 12.2143 8.73807 12.7085 8.73807 13.214C8.73702 13.8916 8.46738 14.5411 7.98827 15.0202C7.50916 15.4993 6.85964 15.769 6.18207 15.77Z" fill="#D84242"/>
<path d="M18.795 5.92204C18.7807 5.88791 18.7595 5.85712 18.7326 5.83165C18.7057 5.80617 18.6739 5.78655 18.639 5.77404L17.654 5.39305C17.6718 5.11391 17.6567 4.83365 17.609 4.55805L18.597 4.11804C18.6312 4.10372 18.662 4.08246 18.6874 4.0556C18.7129 4.02875 18.7325 3.99689 18.745 3.96204C18.7589 3.92702 18.7655 3.88957 18.7644 3.85193C18.7634 3.81429 18.7548 3.77726 18.739 3.74304L18.216 2.56705C18.184 2.49845 18.1272 2.44451 18.057 2.41605C17.9871 2.38951 17.9094 2.39166 17.841 2.42204L16.816 2.87905C16.6446 2.67765 16.4515 2.49588 16.24 2.33704L16.64 1.28104C16.6538 1.24654 16.6604 1.20957 16.6594 1.17242C16.6584 1.13527 16.6497 1.09873 16.634 1.06504C16.6027 0.997001 16.5471 0.943137 16.478 0.914045L15.278 0.454045C15.2435 0.440236 15.2066 0.433643 15.1694 0.434675C15.1323 0.435707 15.0957 0.444341 15.062 0.460045C15.0272 0.473857 14.9958 0.494909 14.9698 0.521804C14.9437 0.5487 14.9237 0.580824 14.911 0.616045L14.505 1.67004C14.2413 1.64497 13.9757 1.64966 13.713 1.68404L13.259 0.659045C13.228 0.590571 13.1712 0.537175 13.1009 0.510558C13.0306 0.483941 12.9526 0.486274 12.884 0.517045L11.705 1.04005C11.6366 1.0711 11.583 1.12779 11.5559 1.19791C11.5288 1.26804 11.5303 1.346 11.56 1.41505L12 2.40304C11.7796 2.57514 11.5811 2.77362 11.409 2.99405L10.424 2.61604C10.3536 2.58888 10.2753 2.59067 10.2062 2.62101C10.137 2.65136 10.0827 2.70781 10.055 2.77804L9.59504 3.97805C9.58123 4.01255 9.57463 4.04952 9.57567 4.08667C9.5767 4.12382 9.58533 4.16036 9.60103 4.19405C9.61567 4.22833 9.63702 4.25935 9.6638 4.28528C9.69059 4.31121 9.72229 4.33153 9.75704 4.34505L10.689 4.70304C10.6493 5.00173 10.6493 5.30436 10.689 5.60305L9.80303 5.99804C9.73444 6.03009 9.6805 6.08689 9.65204 6.15705C9.6255 6.22702 9.62765 6.30465 9.65804 6.37304L10.183 7.55204C10.2139 7.62069 10.2706 7.67442 10.3408 7.70156C10.411 7.7287 10.489 7.72708 10.558 7.69705L11.404 7.31905C11.5994 7.57039 11.829 7.79321 12.086 7.98104L11.757 8.83305C11.7304 8.90404 11.7326 8.98261 11.763 9.05204C11.7951 9.12064 11.8519 9.17458 11.922 9.20304L13.122 9.66304C13.1537 9.6762 13.1877 9.68299 13.222 9.68305C13.2621 9.68284 13.3017 9.67397 13.338 9.65704C13.4059 9.62645 13.4591 9.57043 13.486 9.50104L13.815 8.64604C14.1316 8.67776 14.4509 8.66531 14.764 8.60905L15.142 9.45504C15.1571 9.48921 15.1788 9.52008 15.2058 9.54586C15.2328 9.57165 15.2646 9.59186 15.2995 9.60532C15.3343 9.61879 15.3714 9.62526 15.4088 9.62435C15.4461 9.62345 15.4829 9.61519 15.517 9.60005L16.693 9.07504C16.7273 9.06008 16.7582 9.03848 16.7841 9.01148C16.81 8.98449 16.8302 8.95264 16.8437 8.91777C16.8572 8.8829 16.8636 8.84571 16.8627 8.80834C16.8617 8.77097 16.8533 8.73416 16.838 8.70004L16.443 7.81404C16.6713 7.61769 16.8729 7.39246 17.043 7.14404L17.975 7.50204C18.0098 7.51521 18.0469 7.52138 18.0841 7.52022C18.1213 7.51905 18.1578 7.51056 18.1917 7.49523C18.2256 7.4799 18.2562 7.45804 18.2816 7.4309C18.3071 7.40376 18.3269 7.37186 18.34 7.33704L18.8 6.13704C18.8135 6.10267 18.82 6.06596 18.8192 6.02904C18.8183 5.99213 18.8101 5.95575 18.795 5.92204ZM16.026 5.87905C15.8813 6.25662 15.6255 6.58144 15.2923 6.81067C14.9592 7.03989 14.5644 7.16275 14.16 7.16304C13.9143 7.16244 13.6707 7.11738 13.441 7.03005C13.1958 6.93589 12.9715 6.79435 12.781 6.61351C12.5904 6.43267 12.4374 6.21606 12.3305 5.97607C12.2237 5.73608 12.1652 5.47739 12.1583 5.21478C12.1514 4.95218 12.1964 4.69079 12.2905 4.44555C12.3847 4.2003 12.5262 3.97601 12.7071 3.78546C12.8879 3.59492 13.1045 3.44186 13.3445 3.33503C13.5845 3.22819 13.8432 3.16968 14.1058 3.16282C14.3684 3.15596 14.6298 3.20089 14.875 3.29504C15.1203 3.38911 15.3446 3.53057 15.5352 3.71135C15.7258 3.89212 15.8789 4.10867 15.9858 4.34863C16.0927 4.58858 16.1512 4.84724 16.1581 5.10983C16.1651 5.37242 16.1202 5.6338 16.026 5.87905Z" fill="#D84242"/>
</svg>
