<svg width="24" height="24" viewBox="0 0 24 24" fill="none" xmlns="http://www.w3.org/2000/svg">
<path d="M5.27306 19.6218C5.27292 19.902 5.328 20.1794 5.43513 20.4384C5.54227 20.6973 5.69936 20.9325 5.89744 21.1307C6.09552 21.3289 6.33071 21.4861 6.58956 21.5933C6.84841 21.7006 7.12586 21.7558 7.40605 21.7558H15.9421C16.2223 21.7559 16.4999 21.7008 16.7589 21.5936C17.0178 21.4864 17.2531 21.3292 17.4513 21.131C17.6495 20.9329 17.8067 20.6976 17.9139 20.4386C18.0211 20.1796 18.0762 19.9021 18.0761 19.6218V6.82178H5.27605L5.27306 19.6218ZM19.1441 3.62178H15.4061L14.3421 2.55078H9.00605L7.94005 3.61778H4.20605V5.75078H19.1441V3.62178Z" fill="#DC1C6A"/>
</svg>
