<svg width="48" height="48" viewBox="0 0 48 48" fill="none" xmlns="http://www.w3.org/2000/svg">
<path opacity="0.24" d="M24 48C37.2548 48 48 37.2548 48 24C48 10.7452 37.2548 0 24 0C10.7452 0 0 10.7452 0 24C0 37.2548 10.7452 48 24 48Z" fill="black"/>
<path d="M31 31H17V17H22V15H17C16.4696 15 15.9609 15.2107 15.5858 15.5858C15.2107 15.9609 15 16.4696 15 17V31C15 31.5304 15.2107 32.0391 15.5858 32.4142C15.9609 32.7893 16.4696 33 17 33H31C31.5299 32.9984 32.0377 32.7872 32.4125 32.4125C32.7872 32.0377 32.9984 31.5299 33 31V26H31V31ZM26 15V17H29.59L19.76 26.83L21.17 28.24L31 18.41V22H33V15H26Z" fill="white"/>
</svg>
