<svg width="196" height="130" viewBox="0 0 196 130" fill="none" xmlns="http://www.w3.org/2000/svg">
<path d="M187.732 34.607C183.789 19.89 172.074 7.64396 157.808 3.72296C150.583 1.83839 142.98 1.96276 135.82 4.08265C128.66 6.20254 122.216 10.2375 117.181 15.752C112.255 21.241 108.707 28.152 102.824 32.514C95.662 37.822 86.259 38.452 77.492 37.898C68.725 37.344 59.866 35.79 51.222 37.462C37.371 40.144 25.465 51.696 21.967 65.831C18.469 79.966 23.614 95.92 34.567 105.008L46.673 115.025C57.773 123.086 99.829 126.451 126.016 124.457C144.552 123.045 157.216 115.931 168.376 104.827C177.013 96.241 182.129 84.517 185.548 72.652C189.125 60.298 191.048 46.99 187.732 34.607Z" fill="#D2EEF6"/>
<path d="M195.135 127.567C195.135 127.611 151.445 127.649 97.567 127.649C43.689 127.649 0 127.621 0 127.567C0 127.513 43.68 127.484 97.58 127.484C151.48 127.484 195.135 127.522 195.135 127.567Z" fill="#263238"/>
<path d="M135.465 16.902L132.442 19.49L136.48 24.212L139.506 21.624L135.465 16.902Z" fill="#263238"/>
<path d="M138.08 16.535L131.854 21.884L127.488 16.796C129.047 14.4919 131.193 12.6455 133.704 11.447L138.08 16.535Z" fill="#455A64"/>
<path d="M132.903 20.987C132.868 21.019 131.816 19.861 130.55 18.408C129.763 17.5503 129.02 16.6535 128.324 15.721C128.362 15.689 129.412 16.847 130.677 18.3C131.942 19.753 132.942 20.959 132.903 20.987Z" fill="#263238"/>
<path d="M134.08 19.97C133.828 19.7252 133.594 19.4629 133.38 19.185C132.96 18.692 132.391 18.008 131.764 17.245L130.174 15.286L129.697 14.691C129.583 14.545 129.522 14.478 129.522 14.468C130.386 15.2919 131.18 16.1852 131.898 17.139C132.534 17.902 133.081 18.599 133.488 19.11C133.71 19.3782 133.908 19.6657 134.079 19.969L134.08 19.97Z" fill="#263238"/>
<path d="M135.67 18.612C135.415 18.3679 135.178 18.1056 134.961 17.827C134.538 17.327 133.966 16.627 133.336 15.859L131.746 13.868L131.269 13.261C131.207 13.1887 131.152 13.111 131.104 13.029C131.377 13.2547 131.622 13.5118 131.835 13.795C132.265 14.288 132.843 14.981 133.47 15.754C134.097 16.527 134.659 17.236 135.06 17.754C135.287 18.0227 135.491 18.31 135.67 18.613V18.612Z" fill="#263238"/>
<path d="M137.104 17.34C137.069 17.369 136.023 16.202 134.767 14.732C133.511 13.262 132.525 12.045 132.56 12.013C132.595 11.981 133.638 13.151 134.894 14.624C136.15 16.097 137.142 17.311 137.104 17.34Z" fill="#263238"/>
<path d="M188.748 20.117L185.998 17.239L181.505 21.532L184.256 24.41L188.748 20.117Z" fill="#263238"/>
<path d="M188.881 22.952L183.214 17.021L188.057 12.394C190.439 13.8322 192.393 15.8795 193.72 18.325L188.881 22.952Z" fill="#455A64"/>
<path d="M184.161 18.014C184.129 17.979 185.226 16.866 186.613 15.527C188 14.188 189.157 13.127 189.179 13.161C189.201 13.195 188.114 14.306 186.727 15.648C185.34 16.99 184.193 18.046 184.161 18.014Z" fill="#263238"/>
<path d="M185.242 19.143C185.468 18.876 185.715 18.6272 185.98 18.399C186.447 17.954 187.103 17.346 187.831 16.679L189.704 14.984L190.273 14.475C190.41 14.354 190.473 14.294 190.486 14.291C189.708 15.1962 188.857 16.036 187.942 16.802C187.214 17.467 186.542 18.074 186.056 18.484C185.802 18.7244 185.53 18.9444 185.242 19.142V19.143Z" fill="#263238"/>
<path d="M186.68 20.647C186.909 20.3778 187.159 20.127 187.427 19.897C187.901 19.449 188.566 18.838 189.307 18.17L191.215 16.47L191.797 15.961C191.868 15.8978 191.942 15.8384 192.019 15.783C191.809 16.0684 191.565 16.3279 191.294 16.556C190.823 17.011 190.159 17.624 189.421 18.292C188.683 18.96 188.003 19.564 187.513 19.984C187.253 20.2254 186.974 20.4463 186.68 20.645V20.647Z" fill="#263238"/>
<path d="M188.026 22.018C187.994 21.983 189.107 20.88 190.509 19.547C191.911 18.214 193.075 17.165 193.109 17.2C193.143 17.235 192.028 18.338 190.626 19.668C189.224 20.998 188.057 22.046 188.026 22.018Z" fill="#263238"/>
<path d="M163.361 6.37596H158.648V13.731H163.361V6.37596Z" fill="#263238"/>
<path d="M165.88 8.57596H156.18V0.651963C159.358 -0.213577 162.711 -0.213577 165.889 0.651963L165.88 8.57596Z" fill="#0097C2"/>
<path d="M166.004 0.67996C165.89 0.750869 165.77 0.810487 165.645 0.85796C165.313 1.00417 164.972 1.12942 164.624 1.23296C164.103 1.39337 163.572 1.51865 163.034 1.60796C162.381 1.71156 161.721 1.76671 161.059 1.77296C160.398 1.77402 159.738 1.72521 159.084 1.62696C158.546 1.54355 158.015 1.4236 157.494 1.26796C157.146 1.16595 156.804 1.04375 156.47 0.90196C156.344 0.857935 156.223 0.799196 156.111 0.72696C156.111 0.69796 156.645 0.91796 157.526 1.15296C158.043 1.28953 158.568 1.39571 159.097 1.47096C159.744 1.55868 160.397 1.60344 161.05 1.60496C161.703 1.59738 162.355 1.54626 163.002 1.45196C163.529 1.37571 164.052 1.26954 164.567 1.13396C165.47 0.87696 165.991 0.65196 166.004 0.67996Z" fill="#263238"/>
<path d="M159.386 8.55197C159.341 8.55197 159.303 7.02897 159.303 5.15197C159.303 3.27497 159.341 1.75197 159.386 1.75197C159.431 1.75197 159.469 3.27197 159.469 5.15197C159.469 7.03197 159.434 8.55197 159.386 8.55197Z" fill="#263238"/>
<path d="M161.234 8.59797C161.189 8.59797 161.151 7.06797 161.151 5.18297C161.151 3.29797 161.189 1.77097 161.234 1.77097C161.279 1.77097 161.316 3.29697 161.316 5.18297C161.316 7.06897 161.281 8.59797 161.234 8.59797Z" fill="#263238"/>
<path d="M163.082 8.56897C163.037 8.56897 162.999 7.03897 162.999 5.15397C162.999 3.26897 163.037 1.73897 163.082 1.73897C163.127 1.73897 163.164 3.26897 163.164 5.15397C163.164 7.03897 163.129 8.56897 163.082 8.56897Z" fill="#263238"/>
<path d="M164.608 8.56897C164.561 8.56897 164.526 6.91497 164.526 4.87697C164.526 2.83897 164.561 1.18497 164.608 1.18497C164.655 1.18497 164.691 2.83897 164.691 4.87697C164.726 6.10824 164.698 7.3405 164.608 8.56897Z" fill="#263238"/>
<path d="M157.642 8.52197C157.598 8.52197 157.56 6.86797 157.56 4.82997C157.56 2.79197 157.598 1.13797 157.642 1.13797C157.686 1.13797 157.725 2.79197 157.725 4.82997C157.725 6.86797 157.688 8.52197 157.642 8.52197Z" fill="#263238"/>
<path d="M184.682 69.991C189.478 65.1954 192.743 59.0856 194.067 52.4339C195.39 45.7823 194.711 38.8877 192.115 32.622C189.52 26.3563 185.125 21.0009 179.486 17.233C173.847 13.4652 167.217 11.4541 160.436 11.4541C153.654 11.4541 147.024 13.4652 141.385 17.233C135.746 21.0009 131.351 26.3563 128.756 32.622C126.16 38.8877 125.481 45.7823 126.804 52.4339C128.128 59.0856 131.393 65.1954 136.189 69.991C142.62 76.4212 151.341 80.0337 160.436 80.0337C169.53 80.0337 178.251 76.4212 184.682 69.991Z" fill="#0097C2"/>
<path d="M160.436 74.271C166.132 74.271 171.7 72.5819 176.436 69.4173C181.173 66.2527 184.864 61.7548 187.044 56.4922C189.224 51.2297 189.794 45.439 188.683 39.8524C187.571 34.2657 184.828 29.134 180.801 25.1063C176.773 21.0785 171.641 18.3356 166.055 17.2243C160.468 16.1131 154.677 16.6834 149.415 18.8632C144.152 21.043 139.654 24.7344 136.49 29.4705C133.325 34.2067 131.636 39.7749 131.636 45.471C131.636 49.253 132.381 52.9981 133.828 56.4922C135.276 59.9864 137.397 63.1613 140.071 65.8356C142.746 68.51 145.921 70.6314 149.415 72.0787C152.909 73.526 156.654 74.271 160.436 74.271Z" fill="#FAFAFA"/>
<path d="M189.233 45.473C189.233 45.473 189.233 45.317 189.211 45.009C189.189 44.701 189.211 44.239 189.151 43.638C189.037 41.8831 188.762 40.1425 188.33 38.438C187.642 35.744 186.57 33.163 185.147 30.774C183.248 27.6127 180.766 24.8406 177.833 22.605C174.273 19.8965 170.13 18.0582 165.733 17.237C162.007 16.5511 158.183 16.5953 154.473 17.367C153.17 17.6506 151.887 18.018 150.632 18.467C145.289 20.4132 140.642 23.8976 137.276 28.481C136.398 29.6743 135.615 30.9352 134.936 32.252C134.583 32.91 134.28 33.594 133.982 34.281C133.68 34.9742 133.416 35.6832 133.19 36.405C132.702 37.8559 132.336 39.3451 132.096 40.857C131.854 42.3853 131.728 43.9297 131.717 45.477C131.729 47.0254 131.854 48.571 132.093 50.101C132.336 51.6122 132.702 53.1012 133.187 54.553C133.416 55.275 133.702 55.974 133.978 56.674C134.261 57.3673 134.579 58.0455 134.932 58.706C135.612 60.0232 136.396 61.2842 137.276 62.477C140.641 67.0626 145.288 70.5489 150.632 72.496C151.887 72.9449 153.17 73.3124 154.473 73.596C155.743 73.8613 157.03 74.0407 158.324 74.133C165.315 74.6556 172.255 72.599 177.833 68.352C180.767 66.1173 183.249 63.345 185.147 60.183C185.922 58.8888 186.591 57.5341 187.147 56.132C188.276 53.3206 188.951 50.3474 189.147 47.324C189.201 46.724 189.191 46.262 189.207 45.953C189.223 45.644 189.229 45.486 189.229 45.486V45.952C189.229 46.26 189.229 46.722 189.185 47.323C189.011 50.355 188.348 53.3391 187.223 56.16C186.668 57.5687 185.999 58.9299 185.223 60.23C183.328 63.4072 180.846 66.1948 177.909 68.444C172.309 72.7136 165.34 74.786 158.317 74.27C157.016 74.1778 155.724 73.9984 154.447 73.733C153.136 73.451 151.846 73.0836 150.583 72.633C145.212 70.6789 140.539 67.178 137.155 62.572C136.272 61.3725 135.485 60.1048 134.802 58.781C134.446 58.12 134.141 57.426 133.829 56.736C133.522 56.0412 133.256 55.3286 133.034 54.602C132.546 53.1441 132.178 51.6488 131.934 50.131C131.429 47.0515 131.429 43.9104 131.934 40.831C132.179 39.3195 132.547 37.8306 133.034 36.379C133.266 35.651 133.552 34.948 133.834 34.245C134.118 33.5463 134.442 32.8645 134.804 32.203C135.489 30.88 136.277 29.6128 137.16 28.413C140.544 23.8054 145.217 20.3043 150.59 18.352C151.852 17.9018 153.141 17.5344 154.451 17.252C155.729 16.9867 157.022 16.8073 158.324 16.715C165.346 16.1997 172.314 18.272 177.913 22.541C183.107 26.5081 186.805 32.1158 188.407 38.452C188.831 40.1611 189.096 41.9059 189.198 43.664C189.246 44.264 189.23 44.726 189.243 45.035C189.254 45.1809 189.25 45.3276 189.233 45.473Z" fill="#263238"/>
<path d="M185.007 44.43C184.453 44.4999 183.891 44.4728 183.347 44.35C183.877 44.1765 184.433 44.096 184.991 44.112C185.545 44.0251 186.11 44.051 186.654 44.188C186.127 44.3792 185.567 44.4615 185.007 44.43Z" fill="#263238"/>
<path d="M184.394 51.06C183.839 50.9741 183.302 50.7981 182.804 50.539C183.362 50.5136 183.92 50.5846 184.454 50.749C185.013 50.819 185.552 50.9959 186.044 51.27C185.486 51.3111 184.924 51.2397 184.394 51.06Z" fill="#263238"/>
<path d="M182.017 57.277C181.506 57.0515 181.038 56.7384 180.634 56.352C181.177 56.4772 181.695 56.6922 182.167 56.988C182.688 57.1961 183.16 57.5124 183.55 57.916C183 57.8116 182.478 57.594 182.017 57.277Z" fill="#263238"/>
<path d="M178.058 62.6319C177.403 61.9959 176.917 61.432 176.974 61.36C177.031 61.288 177.61 61.76 178.274 62.394C178.938 63.028 179.422 63.586 179.358 63.666C179.294 63.746 178.71 63.2719 178.058 62.6319Z" fill="#263238"/>
<path d="M172.812 66.734C172.492 66.2759 172.253 65.7661 172.106 65.227C172.508 65.6154 172.839 66.0705 173.085 66.572C173.42 67.0217 173.661 67.5342 173.794 68.079C173.715 68.13 173.273 67.519 172.812 66.734Z" fill="#263238"/>
<path d="M166.659 69.275C166.473 68.748 166.381 68.1927 166.385 67.634C166.667 68.1159 166.864 68.643 166.967 69.192C167.171 69.7142 167.264 70.2729 167.242 70.833C166.943 70.3591 166.745 69.8288 166.659 69.275Z" fill="#263238"/>
<path d="M160.042 70.0639C159.995 69.5057 160.054 68.9437 160.214 68.407C160.357 68.9469 160.406 69.5073 160.36 70.0639C160.414 70.6222 160.355 71.1854 160.189 71.721C160.027 71.1845 159.977 70.6205 160.042 70.0639Z" fill="#263238"/>
<path d="M153.478 69.068C153.59 68.5208 153.798 67.9977 154.092 67.523C154.084 68.0822 153.977 68.6356 153.774 69.157C153.676 69.7083 153.468 70.234 153.16 70.702C153.146 70.1407 153.255 69.5832 153.478 69.068Z" fill="#263238"/>
<path d="M147.394 66.331C147.651 65.8347 147.991 65.3861 148.399 65.005C148.243 65.5422 147.995 66.0481 147.665 66.5C147.191 67.282 146.739 67.874 146.66 67.826C146.802 67.2834 147.051 66.7749 147.394 66.331Z" fill="#263238"/>
<path d="M142.278 62.069C142.658 61.6597 143.106 61.3187 143.601 61.061C143.306 61.5346 142.932 61.9541 142.495 62.301C141.827 62.927 141.239 63.379 141.172 63.312C141.105 63.245 141.604 62.686 142.278 62.069Z" fill="#263238"/>
<path d="M138.487 56.593C138.964 56.3019 139.487 56.0933 140.033 55.976C139.621 56.3533 139.147 56.6577 138.633 56.876C138.166 57.1857 137.64 57.3958 137.088 57.493C137.042 57.407 137.673 57.007 138.487 56.593Z" fill="#263238"/>
<path d="M136.306 50.303C136.844 50.1478 137.405 50.0876 137.963 50.125C137.465 50.3794 136.927 50.5452 136.373 50.615C135.838 50.7853 135.275 50.8458 134.716 50.793C135.208 50.5256 135.749 50.359 136.306 50.303Z" fill="#263238"/>
<path d="M135.902 43.67C136.461 43.6642 137.017 43.7545 137.546 43.937C136.999 44.0485 136.436 44.0647 135.883 43.985C135.324 44.0073 134.765 43.9165 134.242 43.718C134.785 43.5808 135.352 43.5644 135.902 43.67Z" fill="#263238"/>
<path d="M137.285 37.141C137.822 37.2932 138.332 37.5295 138.796 37.841C138.239 37.7963 137.693 37.6612 137.18 37.441C136.635 37.3105 136.122 37.0725 135.67 36.741C136.23 36.7633 136.779 36.8994 137.285 37.141Z" fill="#263238"/>
<path d="M140.373 31.243C140.853 31.5315 141.283 31.8967 141.645 32.324C141.12 32.1337 140.631 31.8561 140.198 31.503C139.445 30.985 138.879 30.503 138.926 30.422C139.459 30.5956 139.951 30.8748 140.373 31.243Z" fill="#263238"/>
<path d="M144.924 26.384C145.312 26.7868 145.627 27.2537 145.855 27.764C145.795 27.818 145.264 27.287 144.679 26.584C144.094 25.881 143.679 25.268 143.747 25.207C143.815 25.146 144.348 25.674 144.924 26.384Z" fill="#263238"/>
<path d="M150.616 22.918C150.884 23.4125 151.062 23.9509 151.141 24.508C150.783 24.0786 150.507 23.5871 150.327 23.058C150.045 22.5693 149.865 22.0283 149.799 21.468C149.885 21.417 150.242 22.081 150.616 22.918Z" fill="#263238"/>
<path d="M157.02 21.115C157.144 21.6604 157.171 22.2232 157.1 22.778C156.872 22.2677 156.736 21.7208 156.7 21.163C156.563 20.6195 156.535 20.0543 156.618 19.5C156.86 20.0056 156.997 20.555 157.02 21.115Z" fill="#263238"/>
<path d="M163.68 21.092C163.653 21.6504 163.53 22.2001 163.317 22.717C163.237 22.164 163.253 21.6013 163.365 21.054C163.377 20.4937 163.5 19.9414 163.727 19.429C163.824 19.9808 163.808 20.5465 163.68 21.092Z" fill="#263238"/>
<path d="M170.1 22.852C169.927 23.3838 169.659 23.8803 169.311 24.318C169.385 23.7632 169.554 23.2253 169.811 22.728C169.97 22.1911 170.239 21.693 170.6 21.265C170.543 21.8224 170.373 22.3623 170.1 22.852Z" fill="#263238"/>
<path d="M175.811 26.276C175.5 26.7403 175.11 27.1465 174.659 27.476C174.875 26.9606 175.18 26.4869 175.559 26.076C176.121 25.354 176.633 24.804 176.71 24.876C176.787 24.948 176.373 25.563 175.811 26.276Z" fill="#263238"/>
<path d="M180.399 31.103C179.975 31.4671 179.491 31.7544 178.968 31.952C179.315 31.5137 179.736 31.1391 180.211 30.845C180.625 30.4671 181.112 30.1782 181.642 29.996C181.7 30.072 181.142 30.569 180.399 31.103Z" fill="#263238"/>
<path d="M183.525 36.992C183.018 37.2276 182.473 37.3737 181.916 37.424C182.371 37.097 182.878 36.8498 183.416 36.693C183.917 36.442 184.463 36.2951 185.022 36.261C184.577 36.603 184.068 36.8517 183.525 36.992Z" fill="#263238"/>
<path d="M184.96 43.486C184.409 43.5699 183.848 43.5699 183.296 43.486C183.822 43.2997 184.373 43.1925 184.931 43.168C185.48 43.0484 186.048 43.0538 186.594 43.184C186.075 43.3932 185.519 43.4959 184.96 43.486Z" fill="#263238"/>
<path d="M149.251 14.319L149.151 14.364L148.858 14.482C148.604 14.59 148.222 14.721 147.736 14.933C146.365 15.5063 145.034 16.1705 143.751 16.921C142.937 17.392 142.075 17.954 141.169 18.587C140.206 19.264 139.286 19.9987 138.412 20.787C134.349 24.368 131.246 28.9075 129.384 33.993C128.948 35.157 128.621 36.293 128.338 37.361C128.079 38.3529 127.873 39.358 127.721 40.372C127.49 41.8392 127.357 43.3201 127.321 44.805C127.296 45.333 127.321 45.74 127.321 46.017V46.335C127.324 46.3709 127.324 46.407 127.321 46.443C127.317 46.4097 127.317 46.3762 127.321 46.343V46.025C127.321 45.748 127.286 45.341 127.302 44.813C127.313 43.3224 127.431 41.8346 127.655 40.361C127.789 39.426 127.995 38.412 128.255 37.334C128.542 36.1878 128.888 35.0573 129.292 33.947C131.144 28.8272 134.266 24.2613 138.364 20.677C139.296 19.847 140.243 19.132 141.14 18.477C141.974 17.8751 142.842 17.3219 143.74 16.82C145.031 16.0775 146.374 15.4272 147.757 14.874C148.243 14.674 148.634 14.556 148.895 14.451L149.195 14.351C149.213 14.34 149.232 14.3303 149.252 14.322L149.251 14.319Z" fill="white"/>
<path d="M158.824 12.462C158.497 12.5298 158.165 12.5732 157.831 12.592C157.215 12.656 156.369 12.748 155.431 12.869C154.493 12.99 153.653 13.117 153.043 13.212C152.716 13.2792 152.384 13.3216 152.051 13.339C152.367 13.2286 152.693 13.1476 153.024 13.097C153.631 12.973 154.474 12.827 155.409 12.706C156.344 12.585 157.199 12.506 157.819 12.474C158.153 12.4384 158.489 12.4344 158.824 12.462Z" fill="white"/>
<g opacity="0.4">
<path opacity="0.4" d="M137.419 62.785C137.419 62.785 152.342 86.336 175.493 74.274C199.661 61.681 186.305 32.817 186.305 32.817C186.305 32.817 197.676 55.817 174.119 70.817C168.252 74.554 161.864 74.557 156.992 74.067C144.542 72.821 137.419 62.785 137.419 62.785Z" fill="black"/>
</g>
<path d="M168.462 30.168C168.605 34.3915 168.477 38.6198 168.08 42.827C168.002 44.3561 167.697 45.865 167.174 47.304C166.641 48.7544 165.565 49.9411 164.174 50.614C163.475 50.9292 162.696 51.0196 161.943 50.8727C161.191 50.7259 160.503 50.3489 159.974 49.794L168.462 30.168Z" fill="#E0E0E0"/>
<path d="M159.809 43.203L170.274 25.58L163.959 45.48L160.731 46.444L159.809 43.203Z" fill="#0097C2"/>
<g opacity="0.4">
<path opacity="0.4" d="M170.274 25.579L162.512 43.587L163.958 45.476L170.274 25.579Z" fill="black"/>
</g>
<path d="M160.731 49.808C161.397 49.808 162.048 49.6104 162.602 49.2403C163.156 48.8703 163.588 48.3443 163.843 47.7288C164.098 47.1134 164.164 46.4362 164.034 45.7829C163.904 45.1296 163.584 44.5294 163.113 44.0584C162.642 43.5874 162.041 43.2666 161.388 43.1367C160.735 43.0067 160.058 43.0734 159.442 43.3283C158.827 43.5833 158.301 44.0149 157.931 44.5688C157.561 45.1227 157.363 45.7738 157.363 46.44C157.363 46.8823 157.45 47.3202 157.619 47.7288C157.789 48.1375 158.037 48.5087 158.35 48.8215C158.662 49.1342 159.034 49.3823 159.442 49.5516C159.851 49.7208 160.289 49.808 160.731 49.808Z" fill="#FAFAFA"/>
<path d="M164.099 46.44C164.068 46.1663 164.023 45.8946 163.962 45.626C163.767 44.9004 163.335 44.2611 162.734 43.81C162.293 43.478 161.776 43.2618 161.23 43.1813C160.684 43.1007 160.127 43.1584 159.609 43.349C159.311 43.4541 159.031 43.6052 158.779 43.797C158.51 43.9913 158.273 44.2276 158.079 44.497C157.666 45.0605 157.443 45.7411 157.443 46.44C157.443 47.1388 157.666 47.8194 158.079 48.383C158.451 48.889 158.959 49.2793 159.543 49.5085C160.128 49.7378 160.766 49.7966 161.382 49.6783C161.999 49.5599 162.569 49.2691 163.028 48.8397C163.486 48.4102 163.813 47.8597 163.971 47.252C164.033 46.9837 164.079 46.7118 164.108 46.438C164.128 46.7167 164.103 46.9969 164.035 47.268C163.861 48.0262 163.43 48.7006 162.814 49.176C162.392 49.5038 161.898 49.7272 161.373 49.828C160.769 49.9433 160.146 49.8949 159.567 49.688C159.253 49.5794 158.958 49.4218 158.693 49.221C158.412 49.0176 158.165 48.7708 157.961 48.49C157.523 47.9005 157.287 47.1857 157.287 46.4515C157.287 45.7172 157.523 45.0024 157.961 44.413C158.165 44.1325 158.412 43.8858 158.693 43.682C158.959 43.4838 159.254 43.3273 159.567 43.218C160.017 43.0543 160.496 42.9875 160.974 43.0219C161.452 43.0564 161.916 43.1913 162.338 43.4179C162.76 43.6445 163.129 43.9576 163.422 44.3367C163.714 44.7158 163.923 45.1524 164.035 45.618C164.099 45.8853 164.12 46.161 164.099 46.435V46.44Z" fill="#263238"/>
<path d="M163.198 46.944C163.296 46.4583 163.248 45.9544 163.06 45.4961C162.871 45.0378 162.551 44.6456 162.14 44.369C161.729 44.0924 161.245 43.9439 160.75 43.9423C160.254 43.9406 159.77 44.0858 159.357 44.3597C158.944 44.6335 158.621 45.0235 158.43 45.4806C158.239 45.9376 158.187 46.4411 158.282 46.9275C158.377 47.4138 158.613 47.8611 158.962 48.2129C159.311 48.5647 159.756 48.8052 160.242 48.904C160.565 48.9698 160.897 48.9712 161.221 48.9083C161.544 48.8454 161.852 48.7192 162.127 48.5372C162.401 48.3551 162.637 48.1207 162.821 47.8473C163.005 47.5739 163.133 47.2669 163.198 46.944Z" fill="#455A64"/>
<path d="M134.181 127.268H150.749L143.025 60.698L134.181 127.268Z" fill="#E0E0E0"/>
<path d="M52.66 60.698L41.873 128.052L133.917 129.252L143.025 60.698H52.66Z" fill="#FAFAFA"/>
<path d="M138.925 91.552H47.718L49.702 79.152H140.573L138.925 91.552Z" fill="#EBEBEB"/>
<path d="M138.932 91.563H47.708L49.695 79.163H140.582L138.932 91.563ZM47.732 91.547H138.924L140.568 79.147H49.712L47.732 91.547Z" fill="#263238"/>
<path d="M52.66 60.698L49.702 79.152H140.573L143.024 60.699L52.66 60.698Z" fill="#0097C2"/>
<path d="M52.673 60.698L143.037 60.622H143.123V60.708C140.462 80.777 137.441 103.536 134.248 127.573V127.646H133.142L41.951 127.621H41.862V127.541L52.673 60.698C52.584 61.251 48.473 87.076 42.03 127.573L41.963 127.493H134.153L134.074 127.563C137.274 103.526 140.297 80.77 142.974 60.702L143.047 60.785L52.673 60.698Z" fill="#263238"/>
<path d="M140.573 79.152C140.573 79.197 120.221 79.235 95.141 79.235C70.061 79.235 49.702 79.197 49.702 79.152C49.702 79.107 70.054 79.069 95.14 79.069C120.226 79.069 140.573 79.104 140.573 79.152Z" fill="#263238"/>
<path d="M138.926 91.552C138.926 91.6 118.466 91.635 93.236 91.635C68.006 91.635 47.542 91.601 47.542 91.552C47.542 91.503 67.995 91.469 93.235 91.469C118.475 91.469 138.926 91.509 138.926 91.552Z" fill="#263238"/>
<path d="M137.068 102.967C137.068 103.014 116.612 103.049 91.382 103.049C66.152 103.049 45.676 103.014 45.676 102.967C45.676 102.92 66.13 102.884 91.369 102.884C116.608 102.884 137.068 102.922 137.068 102.967Z" fill="#263238"/>
<path d="M135.215 114.38C135.215 114.424 114.755 114.462 89.525 114.462C64.295 114.462 43.832 114.424 43.832 114.38C43.832 114.336 64.285 114.297 89.525 114.297C114.765 114.297 135.215 114.335 135.215 114.38Z" fill="#263238"/>
<path d="M54.794 127.665C54.749 127.665 56.419 116.79 58.527 103.396C60.635 90.002 62.375 79.142 62.419 79.152C62.463 79.162 60.794 90.021 58.689 103.421C56.584 116.821 54.842 127.672 54.794 127.665Z" fill="#263238"/>
<path d="M68.859 127.665C68.811 127.665 70.484 116.79 72.589 103.396C74.694 90.002 76.437 79.142 76.489 79.152C76.541 79.162 74.864 90.021 72.756 103.421C70.648 116.821 68.891 127.672 68.859 127.665Z" fill="#263238"/>
<path d="M81.928 127.179C81.884 127.179 83.537 116.415 85.62 103.154C87.703 89.893 89.436 79.142 89.477 79.154C89.518 79.166 87.868 89.915 85.785 103.182C83.702 116.449 81.969 127.185 81.928 127.179Z" fill="#263238"/>
<path d="M94.854 127.564C94.81 127.564 96.476 116.71 98.578 103.345C100.68 89.98 102.419 79.145 102.464 79.152C102.509 79.159 100.842 89.999 98.742 103.37C96.642 116.741 94.899 127.57 94.854 127.564Z" fill="#263238"/>
<path d="M107.842 127.564C107.797 127.564 109.463 116.71 111.565 103.345C113.667 89.98 115.407 79.145 115.451 79.152C115.495 79.159 113.833 89.999 111.731 103.37C109.629 116.741 107.892 127.57 107.842 127.564Z" fill="#263238"/>
<path d="M120.825 127.621C120.781 127.621 122.45 116.755 124.555 103.367C126.66 89.9789 128.4 79.13 128.448 79.139C128.496 79.148 126.823 90.002 124.718 103.393C122.613 116.784 120.87 127.64 120.825 127.621Z" fill="#263238"/>
<g opacity="0.2">
<path opacity="0.2" d="M112.652 80.017C113.412 79.6175 114.071 79.0517 114.582 78.3617C115.092 77.6717 115.44 76.8753 115.6 76.032C115.906 74.3455 116.04 72.6324 116 70.919C115.96 69.1995 116.352 67.4975 117.138 65.968C117.657 65.1 118.385 64.378 118.96 63.542C119.277 63.1425 119.51 62.6831 119.646 62.1913C119.782 61.6996 119.817 61.1856 119.749 60.68L109.961 60.731L112.652 80.017Z" fill="black"/>
</g>
<path d="M72.07 92.473C72.0425 92.5157 72.0088 92.5541 71.97 92.587L71.677 92.905C71.419 93.169 71.041 93.541 70.564 94.005C69.61 94.921 68.284 96.167 66.774 97.505C65.264 98.843 63.864 100.005 62.837 100.832C62.322 101.245 61.902 101.576 61.609 101.786L61.269 102.04C61.2311 102.073 61.1882 102.1 61.142 102.12C61.1733 102.085 61.2067 102.051 61.242 102.02L61.56 101.74L62.752 100.732C63.763 99.883 65.152 98.703 66.652 97.374C68.152 96.045 69.514 94.811 70.468 93.917L71.632 92.852L71.95 92.569C71.9859 92.5306 72.0266 92.497 72.071 92.469L72.07 92.473Z" fill="#263238"/>
<path d="M71.335 102.245C71.2001 102.127 71.0737 101.999 70.957 101.863L69.957 100.801C69.098 99.889 67.947 98.661 66.678 97.301L63.365 93.835L62.365 92.782C62.2382 92.657 62.1202 92.5233 62.012 92.382C62.1558 92.4883 62.2897 92.6075 62.412 92.738C62.66 92.973 63.012 93.32 63.452 93.752C64.323 94.617 65.513 95.828 66.801 97.19C68.089 98.552 69.234 99.804 70.048 100.723C70.455 101.181 70.783 101.556 71.002 101.817C71.1263 101.948 71.2381 102.091 71.336 102.243L71.335 102.245Z" fill="#263238"/>
<path d="M74.732 95.395C74.732 95.395 74.764 95.312 74.832 95.15C74.9376 94.9146 75.0655 94.6899 75.214 94.479C75.7987 93.6622 76.6232 93.0478 77.573 92.721C78.2534 92.4748 78.9791 92.3793 79.7 92.441C80.5587 92.5244 81.3862 92.8065 82.117 93.265C82.9608 93.7849 83.6736 94.4922 84.2 95.332C84.809 96.2695 85.1122 97.3729 85.068 98.49C85.0319 99.0932 84.8448 99.6778 84.524 100.19C84.1884 100.721 83.7414 101.172 83.214 101.513C82.0907 102.233 80.7682 102.58 79.436 102.502C78.7384 102.465 78.0513 102.315 77.401 102.06C76.7243 101.796 76.1156 101.383 75.62 100.852C75.3739 100.572 75.1663 100.261 75.003 99.926C74.8475 99.5845 74.7404 99.223 74.685 98.852C74.5793 98.091 74.6456 97.316 74.879 96.584C75.3655 95.058 76.4198 93.7774 77.824 93.007C78.552 92.6072 79.3619 92.3796 80.1916 92.3416C81.0212 92.3037 81.8485 92.4564 82.61 92.788C83.3991 93.1204 84.09 93.6491 84.617 94.324C85.1446 95.017 85.4744 95.8403 85.571 96.706C85.6811 97.5839 85.5389 98.475 85.161 99.275C84.9669 99.6767 84.7116 100.046 84.404 100.369C84.0915 100.688 83.7388 100.965 83.355 101.193C82.5805 101.62 81.7265 101.882 80.8461 101.964C79.9658 102.046 79.078 101.946 78.238 101.67C77.4109 101.416 76.6505 100.982 76.012 100.398C75.3782 99.8133 74.9453 99.0433 74.775 98.198C74.5958 97.3677 74.714 96.5009 75.109 95.749C75.3093 95.3784 75.5845 95.0536 75.917 94.795C76.2442 94.5481 76.6093 94.3559 76.998 94.226C77.7617 93.981 78.5627 93.8734 79.364 93.908C80.1442 93.9135 80.9203 94.0204 81.673 94.226C82.4171 94.4217 83.1047 94.79 83.68 95.301C84.2312 95.8149 84.6072 96.4889 84.755 97.228C84.9009 97.9419 84.8582 98.6816 84.631 99.374C84.406 100.042 84.0255 100.647 83.521 101.139C82.5631 102.076 81.2944 102.628 79.956 102.691C79.3298 102.724 78.7032 102.633 78.112 102.424C77.5445 102.22 77.0343 101.883 76.624 101.441C76.2356 101.019 75.9417 100.519 75.762 99.975C75.5849 99.4644 75.5061 98.9249 75.53 98.385C75.5755 97.3852 75.9745 96.434 76.656 95.701C77.2386 95.0637 77.9756 94.5873 78.796 94.318C79.4849 94.0947 80.2146 94.0264 80.933 94.118C81.9258 94.2403 82.8695 94.6195 83.671 95.218C83.8789 95.3701 84.0754 95.5372 84.259 95.718C84.383 95.842 84.443 95.909 84.443 95.909C84.443 95.909 84.373 95.849 84.249 95.731C84.0594 95.5553 83.859 95.3917 83.649 95.241C82.8465 94.6592 81.9083 94.2925 80.924 94.176C80.1478 94.0863 79.3615 94.1838 78.6307 94.4604C77.9 94.7371 77.2462 95.1847 76.724 95.766C76.06 96.4831 75.6732 97.4134 75.633 98.39C75.6114 98.9193 75.6901 99.4479 75.865 99.948C76.0424 100.476 76.3297 100.96 76.708 101.369C77.1062 101.798 77.6014 102.125 78.152 102.323C78.7297 102.524 79.3411 102.611 79.952 102.578C81.2583 102.513 82.4953 101.971 83.428 101.054C83.9155 100.578 84.283 99.9929 84.5 99.347C84.7175 98.6773 84.7568 97.9625 84.614 97.273C84.4708 96.5638 84.1096 95.917 83.581 95.423C83.0216 94.931 82.3553 94.5759 81.635 94.386C80.8947 94.1833 80.1315 94.0764 79.364 94.068C78.5817 94.0384 77.8002 94.146 77.055 94.386C76.2949 94.6185 75.6515 95.1311 75.255 95.82C74.8784 96.5391 74.7659 97.3675 74.937 98.161C75.1017 98.9719 75.519 99.7098 76.129 100.269C76.7475 100.841 77.4863 101.267 78.291 101.516C79.1085 101.785 79.9726 101.882 80.8294 101.802C81.6862 101.722 82.5174 101.466 83.271 101.051C83.6434 100.831 83.9845 100.562 84.285 100.251C84.5802 99.9408 84.8258 99.587 85.013 99.202C85.3796 98.4302 85.5184 97.5699 85.413 96.722C85.3216 95.887 85.0061 95.0923 84.5 94.422C83.9905 93.7697 83.3227 93.2585 82.56 92.937C81.8211 92.6142 81.018 92.4652 80.2126 92.5016C79.4071 92.538 78.6207 92.7588 77.914 93.147C76.545 93.8971 75.5167 95.1448 75.042 96.632C74.8154 97.3419 74.7492 98.0933 74.848 98.832C74.9053 99.1904 75.0123 99.5391 75.166 99.868C75.3231 100.19 75.5218 100.489 75.757 100.759C76.2366 101.273 76.8254 101.673 77.48 101.929C78.116 102.18 78.7882 102.329 79.471 102.368C80.774 102.447 82.0689 102.114 83.171 101.414C83.6804 101.102 84.1095 100.674 84.4237 100.166C84.7379 99.6581 84.9284 99.0832 84.98 98.488C85.0246 97.3953 84.7301 96.3157 84.137 95.397C83.6246 94.5685 82.9287 93.8689 82.103 93.352C81.3856 92.8976 80.5727 92.6156 79.728 92.528C78.879 92.4524 78.0248 92.5944 77.2459 92.9405C76.4669 93.2865 75.789 93.8253 75.276 94.506C75.1239 94.7132 74.992 94.9346 74.882 95.167C74.8267 95.2394 74.7766 95.3156 74.732 95.395Z" fill="#0097C2"/>
<path d="M83.342 104.175C83.371 104.21 80.849 106.366 77.707 108.993C74.565 111.62 71.983 113.715 71.964 113.68C71.945 113.645 74.457 111.489 77.599 108.866C80.741 106.243 83.318 104.14 83.342 104.175Z" fill="#263238"/>
<path d="M83.897 113.396C83.7472 113.309 83.6056 113.209 83.474 113.096L82.355 112.225C81.417 111.481 80.129 110.444 78.711 109.293C77.293 108.142 76.018 107.093 75.098 106.326L74.014 105.41C73.8767 105.305 73.7489 105.188 73.632 105.061C73.7809 105.149 73.9224 105.25 74.055 105.361L75.171 106.232C76.109 106.976 77.397 108.013 78.815 109.164C80.233 110.315 81.508 111.364 82.431 112.131L83.512 113.044C83.6485 113.152 83.7772 113.27 83.897 113.396Z" fill="#263238"/>
<path d="M109.893 104.299C109.918 104.334 107.508 106.182 104.503 108.433C101.498 110.684 99.043 112.462 99.014 112.424C98.985 112.386 101.399 110.541 104.404 108.29C107.409 106.039 109.864 104.261 109.893 104.299Z" fill="#263238"/>
<path d="M110.828 112.122C110.806 112.16 108.243 110.573 105.104 108.573C101.965 106.573 99.45 104.925 99.472 104.884C99.494 104.843 102.058 106.436 105.196 108.433C108.334 110.43 110.866 112.084 110.828 112.122Z" fill="#263238"/>
<path d="M83.76 127.566C83.725 127.535 86.231 124.908 89.354 121.706C92.477 118.504 95.037 115.925 95.078 115.956C95.119 115.987 92.607 118.615 89.484 121.82C86.361 125.025 83.792 127.598 83.76 127.566Z" fill="#0097C2"/>
<path d="M94.352 127.564C94.3158 127.529 94.2824 127.492 94.252 127.452L93.985 127.134C93.737 126.816 93.406 126.406 93.002 125.904C92.172 124.867 90.995 123.458 89.631 121.961C88.267 120.464 86.973 119.161 86.019 118.24L84.887 117.127L84.569 116.827C84.5318 116.794 84.4982 116.756 84.469 116.716C84.512 116.741 84.5525 116.769 84.59 116.802L84.908 117.078C85.191 117.32 85.592 117.678 86.081 118.131C87.054 119.031 88.364 120.325 89.735 121.826C91.106 123.327 92.279 124.752 93.074 125.807C93.481 126.335 93.802 126.761 94.028 127.079L94.273 127.429C94.3048 127.471 94.3313 127.516 94.352 127.564Z" fill="#0097C2"/>
<path d="M68.321 114.189C68.321 114.189 68.421 122.002 66.451 126.68L54.434 124.632C54.434 124.632 58.053 117.232 57.067 113.114L68.321 114.189Z" fill="#EBEBEB"/>
<path d="M68.318 113.896C68.318 113.896 66.811 123.487 65.889 126.349L53.942 123.977C53.942 123.977 56.4 114.704 56.368 112.122L68.318 113.896Z" fill="#0097C2"/>
<path d="M57.582 116.421C57.582 116.465 59.356 116.879 61.566 117.343C63.776 117.807 65.573 118.148 65.582 118.106C65.591 118.064 63.808 117.648 61.597 117.184C59.386 116.72 57.592 116.376 57.582 116.421Z" fill="white"/>
<path d="M57.277 118.452C57.277 118.496 59.051 118.907 61.262 119.374C63.473 119.841 65.269 120.179 65.278 120.137C65.287 120.095 63.504 119.679 61.294 119.215C59.084 118.751 57.286 118.399 57.277 118.452Z" fill="white"/>
<path d="M59.033 120.752C59.2366 120.841 59.4501 120.905 59.669 120.943C60.079 121.043 60.648 121.172 61.275 121.305C61.902 121.438 62.475 121.547 62.894 121.623C63.1163 121.679 63.3448 121.707 63.574 121.706C63.3626 121.617 63.1419 121.552 62.916 121.512C62.509 121.412 61.94 121.28 61.31 121.149C60.68 121.018 60.11 120.905 59.695 120.832C59.4788 120.778 59.2568 120.752 59.034 120.752H59.033Z" fill="white"/>
<path d="M125.175 92.252C125.175 92.252 126.406 99.865 125.159 104.721L113.126 104.463C113.126 104.463 115.587 96.71 114.026 92.834L125.175 92.252Z" fill="#EBEBEB"/>
<path d="M125.121 91.964C125.121 91.964 125.041 101.539 124.555 104.464L112.542 103.892C112.542 103.892 113.595 94.479 113.178 91.964H125.121Z" fill="#455A64"/>
<path d="M114.885 96.225C114.885 96.27 116.691 96.308 118.92 96.311C121.149 96.314 122.959 96.282 122.959 96.238C122.959 96.194 121.153 96.155 118.92 96.152C116.687 96.149 114.885 96.18 114.885 96.225Z" fill="white"/>
<path d="M114.999 98.252C114.999 98.296 116.805 98.334 119.034 98.338C121.263 98.342 123.072 98.309 123.072 98.264C123.072 98.219 121.266 98.182 119.034 98.179C116.802 98.176 114.999 98.206 114.999 98.252Z" fill="white"/>
<path d="M117.152 100.117C117.374 100.165 117.6 100.185 117.827 100.178C118.243 100.178 118.819 100.2 119.455 100.203C120.091 100.206 120.663 100.203 121.08 100.181C121.306 100.19 121.532 100.172 121.754 100.127C121.533 100.08 121.306 100.061 121.08 100.07C120.663 100.054 120.091 100.044 119.455 100.041C118.819 100.038 118.243 100.041 117.827 100.063C117.601 100.054 117.374 100.072 117.152 100.117Z" fill="white"/>
<path d="M127.719 70.299C126.533 70.2553 125.379 69.8965 124.377 69.2594C123.376 68.6223 122.562 67.7299 122.019 66.674C120.863 64.4667 120.505 61.9279 121.005 59.487C121.251 58.014 121.874 56.6298 122.814 55.4695C123.754 54.3091 124.979 53.4121 126.369 52.866C128.579 52.157 132.529 52.548 134.392 55.666C135.28 57.1913 135.721 58.9358 135.664 60.7C135.647 60.9529 135.531 61.1888 135.34 61.356C135.245 61.4383 135.136 61.5015 135.017 61.542C134.868 61.5922 134.709 61.605 134.554 61.5792C134.399 61.5534 134.253 61.4898 134.128 61.394C134.003 61.2983 133.904 61.1732 133.839 61.03C133.774 60.8868 133.746 60.7298 133.756 60.573C133.773 59.1958 133.42 57.8393 132.732 56.646C131.295 54.246 128.144 54.293 126.932 54.681C124.706 55.393 123.281 57.8 122.852 59.871C122.44 61.8745 122.734 63.9587 123.682 65.771C124.093 66.6015 124.743 67.2905 125.548 67.7499C126.353 68.2093 127.277 68.4182 128.201 68.35C128.451 68.3116 128.706 68.3742 128.91 68.524C129.114 68.6737 129.25 68.8984 129.289 69.1485C129.327 69.3986 129.264 69.6536 129.114 69.8576C128.965 70.0615 128.74 70.1976 128.49 70.236C128.234 70.2755 127.976 70.2956 127.717 70.296L127.719 70.299Z" fill="#263238"/>
<path d="M66.13 70.299C64.9435 70.2556 63.79 69.8969 62.7882 69.2598C61.7864 68.6226 60.9724 67.7301 60.43 66.674C59.2726 64.4672 58.913 61.9284 59.412 59.487C59.968 56.803 61.851 53.712 64.818 52.86C66.2485 52.4727 67.7649 52.5493 69.149 53.079L68.462 54.86C67.4661 54.4814 66.377 54.4223 65.346 54.691C63.158 55.327 61.734 57.75 61.295 59.871C60.8833 61.8745 61.1765 63.9588 62.125 65.771C62.5362 66.6029 63.1865 67.293 63.9926 67.7529C64.7986 68.2127 65.7236 68.4213 66.649 68.352L66.938 70.238C66.6707 70.2791 66.4005 70.2992 66.13 70.298V70.299Z" fill="#263238"/>
<path d="M126.934 60.752L126.056 65.552H138.97L140.118 60.795L126.934 60.752Z" fill="#0097C2"/>
<path d="M69.402 69.539C69.4024 70.0143 69.2379 70.4751 68.9366 70.8428C68.6352 71.2105 68.2157 71.4622 67.7495 71.5551C67.2833 71.6481 66.7993 71.5764 66.38 71.3524C65.9607 71.1283 65.6321 70.7658 65.4503 70.3266C65.2684 69.8874 65.2445 69.3987 65.3827 68.9438C65.5208 68.4889 65.8125 68.0961 66.2079 67.8322C66.6033 67.5684 67.078 67.4498 67.5511 67.4968C68.0241 67.5438 68.4662 67.7534 68.802 68.09C69.1858 68.4746 69.4015 68.9956 69.402 69.539Z" fill="#263238"/>
<path d="M130.942 69.539C130.942 70.0146 130.778 70.4757 130.477 70.8436C130.175 71.2115 129.755 71.4635 129.289 71.5565C128.822 71.6495 128.338 71.5778 127.919 71.3537C127.499 71.1296 127.17 70.7668 126.988 70.3274C126.806 69.8879 126.782 69.3989 126.921 68.9438C127.059 68.4887 127.351 68.0957 127.746 67.8317C128.142 67.5677 128.617 67.4492 129.09 67.4963C129.564 67.5434 130.006 67.7532 130.342 68.09C130.532 68.2802 130.683 68.5061 130.786 68.7547C130.889 69.0034 130.942 69.2699 130.942 69.539Z" fill="#263238"/>
<path d="M97.049 29.78L93.672 42.589L82.014 43.842V45.909L98.394 46.485L101.473 32.115L97.049 29.78Z" fill="#FFAAAA"/>
<path d="M101.962 46.824C101.962 46.824 83.747 45.956 78.562 50.004C73.377 54.052 75.888 60.698 75.888 60.698L105.2 60.622L107.789 45.762L101.962 46.824Z" fill="#263238"/>
<path d="M105.063 56.628C104.975 56.6302 104.886 56.6239 104.799 56.609C104.627 56.59 104.376 56.565 104.052 56.523C103.416 56.444 102.462 56.31 101.317 56.116C98.3127 55.6048 95.341 54.9179 92.417 54.059C90.706 53.553 89.088 53.045 87.593 52.673C86.2737 52.3315 84.9244 52.1185 83.564 52.037C82.6463 51.9856 81.7257 52.0389 80.82 52.196C80.502 52.234 80.257 52.317 80.085 52.345C80.0001 52.3661 79.9139 52.3821 79.827 52.393C79.9078 52.358 79.9919 52.3312 80.078 52.313C80.317 52.2385 80.5601 52.1781 80.806 52.132C81.7139 51.9485 82.6408 51.877 83.566 51.919C84.9458 51.9846 86.3157 52.1879 87.655 52.526C89.155 52.888 90.781 53.397 92.485 53.903C95.3942 54.7563 98.3458 55.4572 101.328 56.003C102.476 56.213 103.408 56.362 104.054 56.464L104.798 56.582C104.888 56.5916 104.978 56.6086 105.065 56.633L105.063 56.628Z" fill="#455A64"/>
<path d="M88.133 52.574C87.627 52.1569 87.0879 51.7816 86.521 51.452C85.9267 51.1739 85.3111 50.9442 84.68 50.765C84.8758 50.7478 85.0732 50.7672 85.262 50.822C85.7271 50.9219 86.1765 51.0844 86.598 51.305C87.0189 51.5269 87.4083 51.804 87.756 52.129C87.9084 52.2527 88.0365 52.4036 88.134 52.574H88.133Z" fill="#455A64"/>
<path d="M103.893 86.418L104.137 94.072L102.598 100.184C102.573 100.289 102.57 100.397 102.589 100.503C102.608 100.609 102.648 100.71 102.708 100.8C102.768 100.889 102.845 100.966 102.936 101.024C103.027 101.082 103.129 101.121 103.236 101.138C103.359 101.161 103.486 101.153 103.605 101.117C103.725 101.08 103.834 101.016 103.923 100.928C105.081 99.796 109.329 95.611 109.275 95.055C109.218 94.419 109.552 86.955 109.552 86.955L103.893 86.418Z" fill="#0097C2"/>
<g opacity="0.6">
<path opacity="0.6" d="M103.206 101.152L109.248 94.552V94.87C109.251 95.1511 109.154 95.4241 108.974 95.64C108.494 96.216 107.13 97.777 103.921 100.94C103.829 101.031 103.717 101.097 103.593 101.134C103.469 101.171 103.338 101.176 103.212 101.15L103.206 101.152Z" fill="white"/>
</g>
<g opacity="0.6">
<path opacity="0.6" d="M107.642 92.091C107.545 92.1622 107.479 92.267 107.456 92.3848C107.433 92.5026 107.455 92.6247 107.518 92.727C107.585 92.8222 107.686 92.8884 107.8 92.912C107.914 92.9356 108.033 92.9148 108.132 92.854C108.232 92.7802 108.3 92.6716 108.324 92.5497C108.347 92.4279 108.324 92.3016 108.259 92.196C108.18 92.1028 108.068 92.044 107.946 92.032C107.824 92.0201 107.703 92.0559 107.607 92.132" fill="white"/>
</g>
<path d="M104.925 97.786C104.881 97.809 104.703 97.411 104.248 97.198C103.967 97.0874 103.666 97.0334 103.364 97.039C103.364 97.02 103.453 96.96 103.631 96.931C103.867 96.9023 104.106 96.9418 104.321 97.045C104.535 97.1481 104.715 97.3105 104.84 97.513C104.929 97.669 104.942 97.78 104.925 97.786Z" fill="#263238"/>
<path d="M104.389 98.82C104.169 98.7001 103.941 98.5939 103.708 98.502C103.46 98.4578 103.21 98.4281 102.958 98.413C103.075 98.3376 103.208 98.2916 103.347 98.2789C103.485 98.2662 103.624 98.2871 103.753 98.34C104.204 98.461 104.427 98.798 104.389 98.82Z" fill="#263238"/>
<path d="M105.927 96.452C105.602 96.2379 105.262 96.0477 104.91 95.883C104.537 95.7692 104.157 95.6843 103.771 95.629C104.172 95.545 104.588 95.578 104.97 95.7241C105.352 95.8703 105.685 96.1232 105.927 96.453V96.452Z" fill="#263238"/>
<path d="M106.049 94.13C106.03 94.178 105.604 94.003 105.049 93.99C104.494 93.977 104.063 94.111 104.049 94.063C104.358 93.893 104.706 93.8095 105.058 93.8213C105.41 93.8331 105.753 93.9398 106.049 94.13Z" fill="#263238"/>
<path d="M106.033 91.8809C105.698 91.7757 105.351 91.7168 105 91.706C104.652 91.7464 104.311 91.8352 103.988 91.97C104.047 91.8759 104.132 91.8008 104.233 91.7539C104.467 91.6216 104.729 91.5466 104.998 91.535C105.267 91.5233 105.534 91.5754 105.779 91.6869C105.954 91.7729 106.042 91.8619 106.033 91.8809Z" fill="#263238"/>
<path d="M105.009 91.277C104.989 91.1817 104.989 91.0833 105.009 90.988C105.033 90.722 105.109 90.4636 105.235 90.228C105.309 90.0465 105.442 89.8953 105.613 89.799C105.672 89.7726 105.738 89.7648 105.801 89.7768C105.865 89.7888 105.924 89.8199 105.969 89.866C106.051 89.9613 106.095 90.0833 106.093 90.209C106.078 90.4653 105.975 90.7087 105.801 90.8977C105.627 91.0867 105.393 91.2097 105.139 91.246C104.885 91.2741 104.629 91.2263 104.403 91.1086C104.176 90.9909 103.99 90.8087 103.867 90.585C103.836 90.5284 103.818 90.4659 103.814 90.4017C103.81 90.3375 103.819 90.2731 103.842 90.213C103.872 90.1559 103.918 90.1093 103.975 90.0791C104.032 90.0489 104.096 90.0367 104.16 90.044C104.349 90.0841 104.524 90.1727 104.668 90.301C104.877 90.4659 105.056 90.6659 105.196 90.892C105.252 90.9717 105.293 91.0612 105.317 91.156C105.115 90.8685 104.872 90.6125 104.595 90.396C104.466 90.29 104.313 90.2169 104.15 90.183C104.115 90.1771 104.078 90.1825 104.047 90.1985C104.015 90.2145 103.988 90.2402 103.972 90.272C103.961 90.3128 103.957 90.3556 103.963 90.3977C103.968 90.4398 103.982 90.4804 104.004 90.517C104.115 90.7066 104.279 90.8603 104.475 90.9595C104.672 91.0588 104.892 91.0996 105.111 91.077C105.328 91.0491 105.528 90.9477 105.679 90.7897C105.83 90.6317 105.922 90.4267 105.94 90.209C105.945 90.1217 105.918 90.0356 105.864 89.967C105.84 89.9393 105.807 89.9203 105.771 89.9129C105.735 89.9054 105.697 89.9101 105.664 89.926C105.524 90.0111 105.414 90.1362 105.346 90.285C105.178 90.594 105.064 90.9295 105.009 91.277Z" fill="#263238"/>
<path d="M107.772 45.762C107.772 45.762 99.895 60.652 99.787 63.252C99.679 65.852 99.787 89.798 99.787 89.798H111.979C112.297 89.798 114.126 79.008 113.753 76.525C113.38 74.042 112.068 60.692 112.068 60.692H119.083C120.228 59.4009 120.884 57.749 120.937 56.024C120.691 53.9374 120.043 51.9182 119.029 50.078C118.429 49.078 114.577 43.833 114.577 43.833L107.772 45.762Z" fill="#263238"/>
<path d="M107.242 46.77C107.233 46.7998 107.222 46.8286 107.207 46.856C107.178 46.92 107.14 46.999 107.092 47.098L106.635 48.027C106.428 48.427 106.183 48.921 105.897 49.49L105.439 50.403L104.959 51.443L102.596 56.56C102.148 57.514 101.677 58.535 101.187 59.581L100.446 61.171C100.207 61.721 100.026 62.2944 99.906 62.882C99.785 63.471 99.722 64.0706 99.718 64.672C99.699 65.267 99.686 65.855 99.677 66.43C99.677 67.587 99.655 68.701 99.658 69.763C99.658 71.887 99.683 73.801 99.705 75.407C99.727 77.013 99.747 78.301 99.763 79.223V80.623C99.757 80.5926 99.757 80.5613 99.763 80.531V80.264C99.763 80.013 99.737 79.669 99.718 79.227C99.686 78.327 99.645 77.027 99.61 75.411C99.575 73.795 99.537 71.894 99.527 69.767V66.429C99.527 65.85 99.546 65.262 99.569 64.664C99.5721 64.053 99.6348 63.4438 99.756 62.845C99.8791 62.2462 100.065 61.662 100.31 61.102L101.054 59.512L102.472 56.497L104.882 51.397L105.372 50.36C105.541 50.042 105.69 49.724 105.843 49.454L106.603 48.004C106.809 47.613 106.975 47.304 107.089 47.088C107.143 46.988 107.189 46.916 107.22 46.853C107.235 46.8281 107.243 46.7992 107.242 46.77Z" fill="#455A64"/>
<path d="M104.694 51.842C104.441 51.2368 104.228 50.6154 104.058 49.982C103.834 49.3652 103.653 48.7341 103.514 48.093C103.81 48.6808 104.045 49.2978 104.214 49.934C104.439 50.5518 104.6 51.1912 104.694 51.842Z" fill="#455A64"/>
<path d="M113.78 76.058C113.759 76.0038 113.746 75.9469 113.741 75.889C113.727 75.76 113.704 75.597 113.675 75.402C113.617 74.954 113.544 74.343 113.452 73.602C113.277 72.063 113.042 69.974 112.781 67.665C112.52 65.356 112.307 63.242 112.181 61.719C112.12 60.975 112.07 60.364 112.031 59.919C112.031 59.719 112.006 59.557 111.996 59.426C111.992 59.3687 111.992 59.3112 111.996 59.254C112.016 59.3079 112.028 59.3645 112.031 59.422C112.047 59.552 112.07 59.715 112.095 59.912C112.146 60.36 112.216 60.968 112.295 61.712C112.463 63.251 112.695 65.344 112.931 67.652C113.167 69.96 113.395 72.052 113.566 73.592C113.636 74.336 113.697 74.947 113.738 75.392C113.754 75.592 113.767 75.755 113.776 75.885C113.781 75.9422 113.781 75.9997 113.776 76.057L113.78 76.058Z" fill="#455A64"/>
<path d="M110.682 5.87896C110.632 5.24471 110.829 4.61559 111.231 4.12281C111.633 3.63002 112.211 3.3116 112.842 3.23396C113.479 3.18744 114.115 3.33246 114.669 3.65038C115.222 3.96829 115.668 4.44457 115.949 5.01796C116.219 5.59477 116.367 6.22097 116.384 6.85755C116.401 7.49412 116.287 8.12741 116.049 8.71796C115.731 9.51796 115.143 10.337 114.287 10.4C113.874 10.3687 113.474 10.2457 113.115 10.04C112.756 9.83432 112.447 9.55108 112.211 9.21096" fill="#263238"/>
<path d="M101.73 12.188C99.186 6.61397 105.23 3.81197 108.513 4.74097C111.604 5.61497 112.924 7.15497 113.433 9.22197C113.99 11.2956 113.879 13.4923 113.115 15.499C112.966 16.0037 112.688 16.4609 112.309 16.8256C111.93 17.1904 111.462 17.45 110.952 17.579" fill="#263238"/>
<path d="M110.485 7.83496C110.747 7.86182 110.989 7.98639 111.163 8.18381C111.336 8.38123 111.429 8.63696 111.423 8.89996L110.829 23.089C110.806 24.765 108.361 25.713 106.564 25.674C104.767 25.635 104.695 24.746 104.656 23.152C104.615 20.49 104.615 19.489 104.615 19.505C103.857 19.308 103.182 18.8759 102.685 18.2707C102.189 17.6655 101.897 16.9184 101.852 16.137C101.656 14.1721 101.643 12.1932 101.814 10.226C101.928 8.43596 103.114 6.23496 104.901 6.40996L110.485 7.83496Z" fill="#FFAAAA"/>
<path d="M102.983 11.924C102.981 12.0241 103.019 12.1209 103.088 12.1934C103.157 12.266 103.252 12.3086 103.352 12.312C103.401 12.3161 103.45 12.3103 103.496 12.295C103.542 12.2799 103.585 12.2554 103.622 12.223C103.659 12.1907 103.689 12.1512 103.71 12.107C103.732 12.063 103.744 12.015 103.746 11.966C103.747 11.866 103.709 11.7697 103.64 11.6973C103.571 11.6249 103.477 11.5821 103.377 11.578C103.328 11.5741 103.279 11.5801 103.233 11.5956C103.186 11.611 103.144 11.6356 103.107 11.668C103.07 11.7002 103.04 11.7397 103.019 11.784C102.998 11.8281 102.985 11.876 102.983 11.925V11.924Z" fill="#263238"/>
<path d="M102.351 11.495C102.398 11.543 102.691 11.33 103.101 11.33C103.511 11.33 103.816 11.537 103.861 11.486C103.906 11.435 103.836 11.375 103.702 11.279C103.524 11.1555 103.312 11.0899 103.095 11.091C102.881 11.0889 102.672 11.1571 102.5 11.285C102.373 11.381 102.328 11.473 102.351 11.495Z" fill="#263238"/>
<path d="M107.012 11.924C107.011 12.0218 107.047 12.1165 107.113 12.1886C107.179 12.2607 107.27 12.3048 107.368 12.312C107.417 12.3159 107.466 12.3099 107.513 12.2945C107.559 12.279 107.602 12.2544 107.639 12.222C107.675 12.1892 107.705 12.1498 107.727 12.106C107.748 12.0617 107.76 12.0138 107.763 11.965C107.763 11.8651 107.725 11.7689 107.657 11.696C107.588 11.6239 107.494 11.5812 107.394 11.577C107.297 11.5723 107.203 11.6063 107.131 11.6714C107.06 11.7364 107.017 11.8273 107.012 11.924Z" fill="#263238"/>
<path d="M106.414 11.571C106.462 11.619 106.751 11.406 107.162 11.406C107.573 11.406 107.877 11.613 107.922 11.565C107.967 11.517 107.896 11.45 107.763 11.355C107.585 11.231 107.372 11.1654 107.155 11.167C106.939 11.1659 106.729 11.2339 106.555 11.361C106.414 11.452 106.379 11.552 106.414 11.571Z" fill="#263238"/>
<path d="M104.906 14.627C104.689 14.56 104.465 14.5194 104.239 14.506C104.134 14.506 104.032 14.474 104.016 14.406C104.006 14.2953 104.031 14.1843 104.086 14.088C104.186 13.834 104.286 13.567 104.404 13.288C104.692 12.6075 104.926 11.9053 105.104 11.188C104.759 11.8413 104.469 12.5219 104.236 13.223L103.936 14.031C103.87 14.1581 103.851 14.3042 103.882 14.444C103.897 14.4825 103.921 14.5169 103.952 14.544C103.981 14.5696 104.015 14.5887 104.052 14.6C104.11 14.6152 104.171 14.6236 104.231 14.625C104.455 14.6538 104.682 14.6545 104.906 14.627Z" fill="#263238"/>
<path d="M104.624 19.502C106.036 19.5278 107.427 19.1589 108.641 18.437C108.241 19.1028 107.647 19.6299 106.938 19.9471C106.23 20.2644 105.441 20.3565 104.678 20.211L104.624 19.502Z" fill="#EB996E"/>
<path d="M105.082 15.62C105.161 15.5221 105.263 15.4457 105.379 15.3979C105.495 15.3502 105.621 15.3327 105.746 15.347C105.837 15.3547 105.926 15.3809 106.007 15.424C106.088 15.4672 106.16 15.5264 106.217 15.598C106.272 15.6666 106.304 15.7504 106.31 15.838C106.315 15.9255 106.294 16.0126 106.249 16.088C106.183 16.162 106.096 16.2146 105.999 16.239C105.903 16.2634 105.802 16.2585 105.708 16.225C105.512 16.156 105.333 16.0478 105.18 15.907C105.134 15.8742 105.094 15.8332 105.063 15.786C105.048 15.7633 105.04 15.7367 105.04 15.7095C105.04 15.6822 105.048 15.6556 105.063 15.633" fill="#EB996E"/>
<path d="M106.121 14.914C106.055 14.914 106.051 15.356 105.67 15.674C105.41 15.8432 105.116 15.9519 104.808 15.992C104.808 16.043 104.908 16.078 105.126 16.084C105.389 16.0871 105.644 15.9983 105.848 15.833C106.042 15.6737 106.167 15.446 106.198 15.197C106.201 15.022 106.15 14.911 106.121 14.914Z" fill="#263238"/>
<path d="M106.217 10.852C106.258 10.963 106.672 10.909 107.155 10.97C107.638 11.031 108.03 11.158 108.093 11.059C108.122 11.011 108.052 10.906 107.893 10.795C107.682 10.6595 107.442 10.5766 107.193 10.553C106.946 10.522 106.694 10.5515 106.461 10.639C106.29 10.706 106.201 10.795 106.217 10.852Z" fill="#263238"/>
<path d="M102.503 10.3C102.576 10.4 102.859 10.3 103.203 10.3C103.547 10.3 103.839 10.364 103.903 10.265C103.932 10.217 103.903 10.122 103.76 10.036C103.592 9.92582 103.394 9.87124 103.194 9.87996C102.993 9.88428 102.799 9.94989 102.637 10.068C102.513 10.16 102.471 10.252 102.503 10.3Z" fill="#263238"/>
<path d="M106.392 5.43096C105.378 5.4825 104.394 5.78859 103.53 6.32096C102.552 6.82773 101.815 7.70216 101.482 8.75196C101.44 8.86027 101.421 8.97594 101.425 9.09196C101.429 9.20775 101.457 9.32145 101.507 9.42596C101.602 9.54578 101.735 9.62882 101.884 9.66076C102.034 9.69271 102.19 9.67156 102.325 9.60096C102.594 9.45431 102.824 9.2434 102.992 8.98696C103.059 9.2676 103.219 9.51712 103.447 9.69456C103.674 9.872 103.956 9.96682 104.244 9.96344C104.533 9.96007 104.811 9.85871 105.035 9.676C105.258 9.49329 105.413 9.24009 105.473 8.95796C105.496 9.2445 105.628 9.51127 105.842 9.70263C106.057 9.89398 106.337 9.99513 106.624 9.98496C106.91 9.95998 107.183 9.85209 107.409 9.67448C107.635 9.49688 107.804 9.25726 107.896 8.98496C107.966 9.5018 108.145 9.99799 108.42 10.441C108.561 10.6608 108.767 10.8317 109.009 10.9307C109.251 11.0296 109.517 11.0517 109.772 10.994C109.665 11.4337 109.672 11.8934 109.791 12.33C109.95 12.75 110.583 19.93 111.009 19.787C111.435 19.644 111.419 12.314 111.515 11.887C111.726 11.0703 111.833 10.2304 111.833 9.38696C111.861 8.51721 111.579 7.66584 111.037 6.98494C110.495 6.30403 109.729 5.83795 108.875 5.66996C108.023 5.47464 107.148 5.39459 106.275 5.43196" fill="#263238"/>
<path d="M112.377 18.513C112.348 18.53 112.316 18.5437 112.284 18.554C112.195 18.5867 112.102 18.6092 112.008 18.621C111.566 18.6772 111.117 18.6066 110.713 18.4176C110.309 18.2285 109.968 17.9287 109.728 17.553C109.402 16.987 109.265 16.3321 109.336 15.683C109.384 14.999 109.543 14.376 109.616 13.804C109.688 13.2957 109.733 12.784 109.75 12.271V11.231C109.736 11.104 109.736 10.9759 109.75 10.849C109.788 10.9741 109.81 11.1034 109.817 11.234C109.851 11.5816 109.868 11.9307 109.867 12.28C109.866 12.7979 109.833 13.3152 109.767 13.829C109.697 14.414 109.548 15.041 109.5 15.699C109.432 16.3152 109.556 16.9373 109.856 17.48C110.117 17.912 110.519 18.2411 110.994 18.412C111.313 18.5334 111.654 18.5856 111.994 18.565C112.242 18.552 112.373 18.498 112.377 18.513Z" fill="#263238"/>
<path d="M105.342 5.04596C105.457 5.26378 105.511 5.50892 105.497 5.75496C105.509 6.35746 105.281 6.93998 104.864 7.37499C104.447 7.81 103.874 8.06205 103.272 8.07596C103.027 8.09951 102.781 8.05559 102.559 7.94896C102.794 7.96106 103.03 7.96106 103.265 7.94896C103.83 7.91054 104.361 7.66341 104.754 7.25555C105.148 6.8477 105.375 6.30824 105.393 5.74196C105.399 5.31896 105.31 5.05196 105.342 5.04596Z" fill="#455A64"/>
<path d="M105.778 8.56296C105.794 8.56296 105.756 8.76296 105.527 8.98896C105.375 9.12567 105.197 9.23024 105.003 9.29639C104.81 9.36255 104.605 9.38893 104.401 9.37396C104.001 9.3382 103.616 9.2061 103.278 8.98896C103.021 8.82696 102.878 8.70296 102.894 8.67096C103.048 8.71942 103.195 8.78659 103.333 8.87096C103.668 9.04541 104.035 9.15339 104.411 9.18896C104.784 9.2109 105.153 9.09804 105.45 8.87096C105.572 8.78261 105.682 8.67911 105.778 8.56296Z" fill="#455A64"/>
<path d="M112.981 7.65196C113.002 7.92562 112.983 8.2009 112.924 8.46896C112.834 9.13324 112.583 9.76536 112.192 10.31C111.988 10.5802 111.731 10.8058 111.437 10.9732C111.143 11.1405 110.817 11.2459 110.481 11.283C110.277 11.3015 110.071 11.2811 109.874 11.223C109.737 11.182 109.674 11.14 109.674 11.131C109.936 11.1779 110.204 11.1897 110.469 11.166C111.101 11.063 111.67 10.7216 112.059 10.212C112.431 9.68485 112.686 9.08398 112.806 8.44996C112.848 8.17993 112.906 7.91275 112.981 7.64996V7.65196Z" fill="#455A64"/>
<path d="M113.528 9.09796C113.557 9.17968 113.573 9.26534 113.576 9.35196C113.597 9.58467 113.602 9.81856 113.591 10.052C113.575 10.8345 113.295 11.5887 112.796 12.192C112.515 12.5238 112.149 12.7733 111.738 12.914C111.4 13.0245 111.04 13.0465 110.691 12.978C110.457 12.9331 110.235 12.8397 110.039 12.704C109.906 12.604 109.849 12.532 109.855 12.526C110.116 12.6919 110.406 12.8063 110.71 12.863C111.038 12.9102 111.373 12.8786 111.687 12.771C112.069 12.6301 112.408 12.3935 112.672 12.084C113.145 11.5028 113.426 10.7895 113.477 10.042C113.528 9.46296 113.499 9.10096 113.528 9.09796Z" fill="#455A64"/>
<path d="M71.613 47.534L65.842 60.734H73.789L79.449 47.434L71.613 47.534Z" fill="#455A64"/>
<path d="M67.415 33.494L73.924 46.294H94.454L93.624 44.621L87.677 44.443L82.828 33.652C82.6804 33.3245 82.4416 33.0466 82.1401 32.8515C81.8385 32.6564 81.4871 32.5524 81.128 32.552H67.994C67.8814 32.5479 67.7698 32.5739 67.6705 32.6271C67.5713 32.6804 67.4879 32.759 67.4291 32.855C67.3702 32.951 67.3378 33.061 67.3354 33.1736C67.3329 33.2862 67.3604 33.3974 67.415 33.496V33.494Z" fill="#E0E0E0"/>
<path d="M77.696 39.234C77.6969 39.4167 77.6344 39.594 77.5191 39.7357C77.4037 39.8775 77.2428 39.9748 77.0637 40.0111C76.8847 40.0474 76.6986 40.0204 76.5372 39.9347C76.3758 39.8491 76.2491 39.7101 76.1788 39.5414C76.1085 39.3728 76.0989 39.185 76.1516 39.0101C76.2044 38.8351 76.3162 38.6839 76.468 38.5822C76.6198 38.4806 76.8022 38.4347 76.984 38.4526C77.1658 38.4704 77.3359 38.5508 77.465 38.68C77.6124 38.8267 77.6955 39.026 77.696 39.234Z" fill="#263238"/>
<path d="M96.642 46.322H71.542V47.546H96.642V46.322Z" fill="#455A64"/>
<path d="M88.912 46.936L96.547 60.746H100.198L100.993 59.166L101.724 57.503L96.642 47.546L88.912 46.936Z" fill="#455A64"/>
<path d="M102.179 23.258C100.812 23.8153 99.6045 24.7027 98.6645 25.8408C97.7244 26.979 97.0811 28.3324 96.792 29.78L101.473 32.114L102.179 23.258Z" fill="#0097C2"/>
<path d="M102.179 23.258C102.179 23.258 99.079 30.209 99.196 34.006C99.3924 35.6142 99.695 37.2077 100.102 38.776L101.714 47.317C101.714 47.317 114.056 45.647 114.329 45.647C114.602 45.647 113.916 38.635 113.916 38.635L115.929 25.162C115.929 25.162 115.007 23.327 110.841 22.691C108.342 22.301 102.179 23.258 102.179 23.258Z" fill="#0097C2"/>
<path d="M101.008 27.293C101.037 27.309 100.713 27.827 100.322 28.724C100.095 29.2489 99.9037 29.7885 99.749 30.339C99.5644 31.0137 99.4307 31.7013 99.349 32.396C99.2758 33.0934 99.2537 33.7953 99.283 34.496C99.3111 35.0665 99.3779 35.6345 99.483 36.196C99.661 37.15 99.864 37.735 99.833 37.745C99.766 37.6176 99.7127 37.4835 99.674 37.345C99.6173 37.1876 99.5683 37.0276 99.527 36.865C99.476 36.674 99.41 36.465 99.365 36.229C99.2458 35.663 99.1673 35.0892 99.13 34.512C99.0919 33.8037 99.11 33.0934 99.184 32.388C99.2688 31.6834 99.4102 30.9868 99.607 30.305C99.7699 29.7504 99.9752 29.2091 100.221 28.686C100.31 28.4825 100.411 28.2839 100.521 28.091C100.597 27.9412 100.68 27.7956 100.772 27.655C100.838 27.5268 100.917 27.4055 101.008 27.293Z" fill="#263238"/>
<path d="M103.679 23.194L103.857 21.286C103.877 21.0869 103.969 20.9022 104.117 20.7672C104.265 20.6323 104.457 20.5567 104.657 20.555L110.747 20.463C110.932 20.4609 111.11 20.529 111.247 20.6535C111.383 20.7781 111.467 20.9498 111.482 21.134L111.637 23.191C111.127 24.2714 110.265 25.1461 109.192 25.671C107.734 26.2437 106.185 26.5486 104.619 26.571L103.679 23.194Z" fill="#0097C2"/>
<path d="M105.273 20.571C105.292 20.571 105.203 20.695 105.165 20.889C105.13 21.1699 105.13 21.454 105.165 21.735C105.218 22.1446 105.218 22.5593 105.165 22.969C105.055 22.5703 104.999 22.1586 104.999 21.745C104.957 21.4505 104.97 21.1508 105.037 20.861C105.142 20.641 105.263 20.552 105.273 20.571Z" fill="#263238"/>
<path d="M106.732 22.93C106.625 22.5391 106.573 22.1352 106.579 21.73C106.555 21.4441 106.555 21.1568 106.579 20.871C106.611 20.642 106.703 20.524 106.722 20.553C106.741 20.582 106.694 20.687 106.697 20.896C106.7 21.105 106.732 21.405 106.732 21.723C106.785 22.1212 106.785 22.5247 106.732 22.923V22.93Z" fill="#263238"/>
<path d="M108.561 22.879C108.43 22.508 108.349 22.1207 108.323 21.728C108.244 21.3389 108.219 20.9408 108.25 20.545C108.383 20.9191 108.463 21.3098 108.488 21.706C108.565 22.0919 108.59 22.4865 108.561 22.879Z" fill="#263238"/>
<path d="M110.137 23C109.992 22.5912 109.915 22.1616 109.908 21.728C109.847 21.2958 109.858 20.8566 109.94 20.428C110.024 20.847 110.068 21.2728 110.074 21.7C110.136 22.1303 110.157 22.5656 110.137 23Z" fill="#263238"/>
<g opacity="0.3">
<path opacity="0.3" d="M111.342 30.286C111.063 32.9211 111.292 35.5852 112.017 38.134L115.572 32.261L111.342 30.286Z" fill="black"/>
</g>
<path d="M115.598 24.721L115.618 24.74C116.626 25.7983 117.363 27.0844 117.767 28.489L118.422 31.475L111.422 32.556C111.037 31.2895 110.946 29.952 111.155 28.645C111.503 26.393 115.598 24.721 115.598 24.721Z" fill="#0097C2"/>
<path d="M118.422 31.475C118.376 31.4909 118.33 31.5026 118.282 31.51L117.882 31.583L116.382 31.828L111.313 32.598H111.224V32.506C111.208 32.083 111.196 31.644 111.186 31.193C111.17 30.02 111.186 28.893 111.256 27.876C111.305 26.9613 111.585 26.074 112.07 25.297C112.395 24.775 112.841 24.3387 113.37 24.025C113.513 23.94 113.664 23.8696 113.821 23.815C113.874 23.7909 113.93 23.7747 113.987 23.767C113.783 23.855 113.587 23.9614 113.402 24.085C112.897 24.4081 112.474 24.8434 112.165 25.357C111.704 26.1288 111.442 27.0029 111.402 27.901C111.328 28.912 111.332 30.032 111.351 31.201C111.351 31.646 111.373 32.088 111.382 32.508L111.29 32.429L116.378 31.714L117.878 31.52L118.285 31.472C118.327 31.4665 118.37 31.4665 118.413 31.472L118.422 31.475Z" fill="#263238"/>
<path d="M103.642 27.089C103.286 26.8814 102.959 26.6279 102.669 26.335C102.342 26.0829 102.051 25.7876 101.804 25.457C102.487 25.9161 103.105 26.4646 103.642 27.088V27.089Z" fill="#FAFAFA"/>
<path d="M102.7 30.769C102.451 31.0252 102.162 31.2399 101.845 31.405C101.554 31.6161 101.232 31.7813 100.891 31.895C101.43 31.4314 102.037 31.0539 102.691 30.776L102.7 30.769Z" fill="#FAFAFA"/>
<path d="M106.602 31.675C106.545 31.2231 106.545 30.7658 106.602 30.314C106.604 29.8597 106.66 29.4073 106.767 28.966C106.823 29.4169 106.823 29.873 106.767 30.324C106.766 30.7792 106.71 31.2327 106.602 31.675Z" fill="#FAFAFA"/>
<path d="M110.396 35.352C110.079 35.0551 109.784 34.7363 109.512 34.398C109.199 34.1001 108.907 33.7813 108.637 33.444C109.02 33.6646 109.359 33.9546 109.637 34.299C109.95 34.6026 110.207 34.959 110.396 35.352Z" fill="#FAFAFA"/>
<path d="M110.93 27.662C110.657 27.9459 110.345 28.1899 110.004 28.387C109.692 28.6273 109.349 28.8241 108.984 28.972C109.258 28.6893 109.57 28.4468 109.912 28.252C110.224 28.0128 110.566 27.8161 110.93 27.667V27.662Z" fill="#FAFAFA"/>
<path d="M107.501 24.879C107.199 25.1726 106.859 25.4239 106.49 25.626C106.152 25.8769 105.782 26.0823 105.39 26.237C105.692 25.943 106.032 25.6908 106.401 25.487C106.741 25.2397 107.111 25.0358 107.501 24.88V24.879Z" fill="#FAFAFA"/>
<path d="M110.592 25.986C110.384 25.6776 110.221 25.3408 110.109 24.986C109.953 24.6489 109.846 24.2913 109.791 23.924C110.002 24.2308 110.165 24.568 110.274 24.924C110.433 25.2589 110.54 25.6159 110.592 25.983V25.986Z" fill="#FAFAFA"/>
<path d="M114.842 27.382C114.335 27.0293 113.895 26.5891 113.542 26.082C113.811 26.2362 114.051 26.4366 114.251 26.674C114.49 26.8723 114.692 27.1126 114.845 27.383L114.842 27.382Z" fill="#FAFAFA"/>
<path d="M113.092 30.483C112.991 30.1688 112.945 29.8397 112.955 29.51C112.908 29.1844 112.918 28.8532 112.984 28.531C113.13 29.1712 113.167 29.8315 113.092 30.484V30.483Z" fill="#FAFAFA"/>
<path d="M116.625 29.84C116.255 29.899 115.877 29.8861 115.512 29.802C115.139 29.7703 114.775 29.6685 114.44 29.502C114.81 29.5058 115.179 29.5508 115.54 29.636C115.908 29.6653 116.272 29.7337 116.625 29.84Z" fill="#FAFAFA"/>
<path d="M102.379 36.252C102.12 35.8928 101.906 35.5028 101.743 35.091C101.53 34.7023 101.365 34.2888 101.253 33.86C101.513 34.2189 101.726 34.6089 101.889 35.021C102.103 35.4094 102.267 35.8229 102.379 36.252Z" fill="#FAFAFA"/>
<path d="M107.05 41.266C106.751 40.9945 106.491 40.6833 106.277 40.341C106.022 40.0284 105.808 39.6842 105.641 39.317C106.202 39.8954 106.677 40.5518 107.05 41.266Z" fill="#FAFAFA"/>
<path d="M110.91 39.161C110.583 39.3757 110.228 39.544 109.855 39.661C109.501 39.8277 109.125 39.9422 108.739 40.001C109.419 39.6198 110.15 39.3382 110.91 39.165V39.161Z" fill="#FAFAFA"/>
<path d="M101.399 43.225C101.552 42.625 101.809 42.0567 102.159 41.546C102.106 41.8542 101.998 42.1505 101.841 42.421C101.742 42.713 101.593 42.9853 101.399 43.225Z" fill="#FAFAFA"/>
<path d="M98.406 28.852C98.2221 28.619 98.1114 28.3368 98.088 28.041C98.0131 27.7544 98.0263 27.4519 98.126 27.173C98.1914 27.449 98.2339 27.7299 98.253 28.013C98.3266 28.2884 98.3778 28.5693 98.406 28.853V28.852Z" fill="#FAFAFA"/>
<path d="M103.721 40.007C103.381 39.9177 103.059 39.7728 102.767 39.578C102.45 39.4344 102.158 39.2413 101.902 39.006C102.241 39.0968 102.563 39.2417 102.856 39.435C103.171 39.5812 103.463 39.774 103.721 40.007Z" fill="#FAFAFA"/>
<path d="M106.789 34.709C106.267 35.3334 105.662 35.8823 104.989 36.34C105.23 36.0106 105.514 35.7153 105.834 35.462C106.117 35.1687 106.437 34.9151 106.788 34.708L106.789 34.709Z" fill="#FAFAFA"/>
<g opacity="0.3">
<path opacity="0.3" d="M104.909 34.61C105.064 35.7184 105.558 36.7515 106.325 37.567C106.713 37.9673 107.205 38.2511 107.745 38.3859C108.286 38.5208 108.854 38.5014 109.384 38.33C109.497 38.2986 109.6 38.2407 109.686 38.161C109.772 38.0813 109.837 37.9822 109.877 37.872C109.894 37.736 109.864 37.5982 109.791 37.4822C109.718 37.3662 109.607 37.2791 109.477 37.236C109.219 37.153 108.948 37.1145 108.677 37.122C107.906 37.0713 107.16 36.8242 106.511 36.4041C105.862 35.9841 105.331 35.405 104.969 34.722" fill="black"/>
</g>
<path d="M109.042 37.173C108.973 37.1934 108.901 37.2062 108.829 37.211C108.632 37.2308 108.434 37.2308 108.237 37.211C107.945 37.1778 107.658 37.1107 107.382 37.011C106.7 36.7657 106.095 36.3457 105.626 35.793C105.436 35.5691 105.273 35.3237 105.14 35.062C105.046 34.8876 104.973 34.703 104.921 34.512C104.895 34.4438 104.881 34.3718 104.879 34.299C104.911 34.299 104.997 34.585 105.242 35.005C105.385 35.2501 105.553 35.4802 105.742 35.692C105.976 35.9496 106.237 36.181 106.521 36.382C106.808 36.5766 107.115 36.7399 107.437 36.869C107.701 36.9727 107.975 37.0495 108.254 37.098C108.735 37.164 109.042 37.141 109.042 37.173Z" fill="#263238"/>
<path d="M91.542 42.299L96.142 41.762L99.388 43.889L111.788 40.913L112.081 32.413L117.592 31.688V41.978C117.561 43.2265 117.036 44.4118 116.132 45.274C115.228 46.1362 114.02 46.6051 112.771 46.578L94.594 46.072L93.821 44.527L89.921 44.409L91.542 42.299Z" fill="#FFAAAA"/>
<path d="M111.642 40.897C111.566 40.9274 111.487 40.9518 111.407 40.97L110.733 41.145L108.242 41.762L100.012 43.756L99.246 43.94H99.189L95.945 41.806H95.99L91.382 42.34L91.414 42.321L90.193 43.87L89.875 44.277C89.8397 44.3259 89.7991 44.3708 89.754 44.411C89.784 44.3588 89.8174 44.3087 89.854 44.261L90.172 43.841L91.355 42.27H91.374L95.974 41.694H96.018L99.268 43.818H99.211L99.977 43.634L108.216 41.682L110.716 41.106L111.397 40.956C111.477 40.9297 111.559 40.91 111.642 40.897Z" fill="#EB996E"/>
<path d="M94.054 43.619C93.46 43.6885 92.8616 43.7119 92.264 43.689H91.942L91.987 43.673C91.6272 44.0035 91.2386 44.3013 90.826 44.563C91.1537 44.2006 91.5109 43.8661 91.894 43.563L91.913 43.544H92.266C92.863 43.5198 93.4611 43.5449 94.054 43.619Z" fill="#EB996E"/>
<path d="M113.932 42.287C113.695 41.913 113.387 41.5889 113.026 41.333C112.642 41.1163 112.22 40.9779 111.782 40.926C111.91 40.8815 112.048 40.8705 112.182 40.894C112.507 40.9282 112.819 41.037 113.095 41.2119C113.371 41.3867 113.602 41.6229 113.772 41.902C113.858 42.014 113.913 42.1468 113.931 42.287H113.932Z" fill="#EB996E"/>
<path d="M34.404 110.217H13.642V113.069H34.404V110.217Z" fill="#263238"/>
<path d="M34.442 113.107H13.603V110.182H34.442V113.107ZM13.677 113.034H34.377V110.252H13.677V113.034Z" fill="#263238"/>
<path d="M15.565 112.122L18.551 126.867H29.611L32.502 113.067L15.565 112.122Z" fill="#263238"/>
<path d="M15.565 125.471L17.158 127.665H30.6L32.5 125.471H15.565Z" fill="#455A64"/>
<path d="M23.242 112.552C23.201 112.552 23.15 105.722 23.124 97.288C23.098 88.854 23.124 82.024 23.156 82.024C23.188 82.024 23.248 88.854 23.274 97.288C23.3 105.722 23.283 112.552 23.242 112.552Z" fill="#263238"/>
<path d="M27.869 95.452C27.8553 95.5067 27.8362 95.56 27.812 95.611C27.764 95.729 27.701 95.875 27.628 96.053C27.587 96.153 27.542 96.253 27.491 96.371C27.44 96.489 27.402 96.622 27.354 96.759L27.192 97.204C27.138 97.363 27.092 97.522 27.039 97.713C26.7922 98.548 26.5978 99.3977 26.457 100.257C26.2974 101.311 26.1913 102.372 26.139 103.436C26.0637 105.376 26.1192 107.319 26.305 109.252C26.372 109.996 26.439 110.594 26.489 111.007C26.508 111.201 26.527 111.36 26.54 111.484C26.5443 111.54 26.5443 111.597 26.54 111.653C26.5201 111.6 26.5073 111.544 26.502 111.488C26.48 111.364 26.454 111.208 26.422 111.017C26.355 110.604 26.269 110.006 26.19 109.265C25.9736 107.331 25.9044 105.383 25.983 103.439C26.03 102.367 26.1362 101.299 26.301 100.239C26.4481 99.3778 26.6543 98.5278 26.918 97.695C26.975 97.517 27.018 97.346 27.08 97.19L27.252 96.745L27.405 96.36C27.456 96.242 27.505 96.141 27.551 96.042L27.764 95.61C27.7891 95.5541 27.8229 95.5024 27.864 95.457L27.869 95.452Z" fill="#263238"/>
<path d="M27.342 89.932C27.3243 90.0086 27.3019 90.0841 27.275 90.158C27.221 90.314 27.148 90.527 27.059 90.794L26.896 91.252C26.845 91.424 26.788 91.608 26.727 91.805C26.606 92.199 26.466 92.648 26.342 93.153L26.132 93.945C26.068 94.222 26.005 94.511 25.938 94.807C25.792 95.402 25.687 96.047 25.553 96.715C25.324 98.069 25.124 99.576 24.984 101.152C24.844 102.728 24.796 104.252 24.777 105.626C24.758 107 24.777 108.243 24.847 109.283C24.863 109.804 24.898 110.272 24.923 110.683C24.948 111.094 24.974 111.453 24.999 111.742C25.024 112.031 25.037 112.242 25.05 112.413C25.0542 112.49 25.0542 112.568 25.05 112.645C25.0296 112.57 25.0169 112.493 25.012 112.416C24.993 112.248 24.968 112.028 24.933 111.748C24.898 111.468 24.863 111.112 24.833 110.689C24.803 110.266 24.76 109.809 24.733 109.289C24.663 108.246 24.633 107.006 24.633 105.626C24.633 104.246 24.697 102.726 24.833 101.142C24.969 99.558 25.18 98.051 25.415 96.69C25.552 96.013 25.663 95.367 25.815 94.782C25.885 94.482 25.955 94.194 26.015 93.917L26.234 93.128C26.364 92.622 26.514 92.174 26.644 91.78C26.708 91.58 26.768 91.402 26.822 91.23C26.876 91.058 26.94 90.912 26.994 90.775L27.236 90.139C27.2615 90.0664 27.295 89.997 27.336 89.932H27.342Z" fill="#263238"/>
<path d="M21.929 113.759C21.9256 113.733 21.9256 113.706 21.929 113.68C21.9308 113.601 21.9244 113.522 21.91 113.445C21.894 113.228 21.875 112.926 21.85 112.545C21.799 111.745 21.729 110.615 21.64 109.216C21.462 106.408 21.201 102.538 20.727 98.261C20.485 96.124 20.206 94.099 19.913 92.261C19.76 91.345 19.62 90.4739 19.458 89.6609C19.296 88.8479 19.14 88.093 19.013 87.403C18.886 86.713 18.724 86.096 18.6 85.552C18.476 85.008 18.365 84.538 18.282 84.152C18.199 83.766 18.12 83.484 18.066 83.271C18.047 83.179 18.028 83.103 18.015 83.042C18.0101 83.0158 18.0101 82.9891 18.015 82.963C18.0282 82.9868 18.038 83.0124 18.044 83.039L18.108 83.265C18.168 83.475 18.248 83.765 18.353 84.14C18.458 84.515 18.582 84.983 18.712 85.53C18.842 86.077 19.001 86.691 19.145 87.381C19.289 88.071 19.463 88.822 19.609 89.636C19.755 90.45 19.927 91.321 20.08 92.236C20.38 94.074 20.662 96.103 20.904 98.236C21.378 102.51 21.623 106.393 21.775 109.204C21.851 110.612 21.905 111.748 21.937 112.536C21.937 112.921 21.962 113.223 21.969 113.443V113.678C21.9604 113.706 21.9476 113.733 21.931 113.757L21.929 113.759Z" fill="#263238"/>
<path d="M23.073 85.327C22.9875 84.8477 22.736 84.4139 22.3626 84.1016C21.9892 83.7893 21.5178 83.6184 21.031 83.619C20.5443 83.6404 20.0688 83.7724 19.6407 84.0049C19.2125 84.2374 18.843 84.5644 18.56 84.961C18 85.7593 17.5953 86.6559 17.367 87.604C16.6594 89.8759 16.4109 92.266 16.636 94.635C16.8696 97.0169 17.9006 99.2502 19.562 100.973C19.6801 101.126 19.8336 101.247 20.0092 101.328C20.1847 101.408 20.3772 101.445 20.57 101.434C20.7713 101.375 20.9542 101.266 21.101 101.116C22.7568 99.5998 24.0691 97.7471 24.95 95.682C25.8308 93.617 26.2597 91.3874 26.208 89.143C26.2378 88.243 26.0177 87.3524 25.572 86.57C25.079 85.826 23.918 85.031 23.072 85.33" fill="#0097C2"/>
<path d="M15.814 77.568L14.442 80.052C14.41 80.109 14.369 80.176 14.302 80.179C14.235 80.182 14.175 80.119 14.137 80.058L10.518 74.518L11.351 74.044L15.814 77.568Z" fill="#0097C2"/>
<g opacity="0.2">
<path opacity="0.2" d="M15.814 77.568L14.442 80.052C14.41 80.109 14.369 80.176 14.302 80.179C14.235 80.182 14.175 80.119 14.137 80.058L10.518 74.518L11.351 74.044L15.814 77.568Z" fill="black"/>
</g>
<path d="M23.156 82.0359L10.812 74.752C10.6705 74.698 10.5561 74.5901 10.494 74.4519C10.446 74.2709 10.583 74.0929 10.713 73.9519C11.5626 73.0714 12.5918 72.3842 13.7306 71.9369C14.8695 71.4897 16.0913 71.2929 17.313 71.36C18.534 71.4478 19.7152 71.8315 20.7547 72.4781C21.7941 73.1246 22.6605 74.0146 23.279 75.071C23.8862 76.1362 24.194 77.3459 24.1699 78.5718C24.1457 79.7978 23.7906 80.9944 23.142 82.0349" fill="#0097C2"/>
<path d="M12.604 72.426C12.6567 72.4114 12.7113 72.405 12.766 72.407C12.866 72.407 13.03 72.382 13.233 72.385C13.8062 72.3774 14.3789 72.4222 14.944 72.519C15.7857 72.6632 16.6061 72.9122 17.386 73.26C18.7322 73.8657 19.9278 74.7617 20.8872 75.8837C21.8465 77.0057 22.5458 78.326 22.935 79.75C23.0943 80.3026 23.2008 80.8692 23.253 81.442C23.278 81.642 23.272 81.801 23.278 81.909C23.2835 81.9628 23.2835 82.0171 23.278 82.071C23.278 82.071 23.249 81.848 23.198 81.435C23.1275 80.8699 23.0115 80.3114 22.851 79.765C22.3333 77.9523 21.3178 76.321 19.9198 75.0563C18.5218 73.7916 16.7973 72.9441 14.942 72.61C14.3828 72.5038 13.816 72.4433 13.247 72.429C13.0328 72.44 12.8181 72.439 12.604 72.426Z" fill="#263238"/>
<path d="M21.484 77.008C21.285 77.1292 21.0713 77.2243 20.848 77.291C20.454 77.447 19.894 77.644 19.29 77.841C18.686 78.038 18.113 78.191 17.7 78.293C17.4807 78.3599 17.2546 78.4025 17.026 78.42C17.2294 78.3216 17.4426 78.2448 17.662 78.191L19.233 77.698L20.801 77.192C21.0223 77.1078 21.2514 77.0458 21.485 77.007L21.484 77.008Z" fill="#263238"/>
<path d="M19.542 71.787C19.6525 72.2373 19.7016 72.7005 19.688 73.164C19.7245 73.6263 19.6989 74.0914 19.612 74.547C19.5524 74.0895 19.529 73.6281 19.542 73.167C19.5056 72.7077 19.5056 72.2462 19.542 71.787Z" fill="#263238"/>
<path d="M10.697 74.614C10.9869 74.4813 11.2881 74.3748 11.597 74.296C12.157 74.121 12.939 73.902 13.823 73.696C14.707 73.49 15.489 73.327 16.049 73.225C16.3627 73.155 16.6819 73.1125 17.003 73.098C16.7012 73.1949 16.3932 73.2715 16.081 73.327C15.509 73.454 14.72 73.645 13.855 73.842C12.99 74.039 12.205 74.252 11.629 74.399C11.3235 74.4912 11.0121 74.5631 10.697 74.614Z" fill="#263238"/>
<path d="M17.464 83.031C16.4424 82.3076 15.1915 81.9829 13.947 82.118C12.6143 82.2029 11.3092 82.5363 10.099 83.101C7.97374 83.9468 6.13909 85.3903 4.81701 87.257C4.16849 88.1949 3.76107 89.2782 3.63078 90.411C3.50049 91.5438 3.65135 92.6913 4.07001 93.752C4.14335 93.9688 4.29392 94.151 4.49301 94.264C4.72539 94.3293 4.97339 94.3101 5.19301 94.21C7.58533 93.5128 9.90555 92.5886 12.122 91.45C14.3467 90.2989 16.1934 88.5324 17.442 86.361C17.7408 85.8483 17.9333 85.2806 18.008 84.692C18.0398 84.3941 18.0078 84.0928 17.914 83.8083C17.8202 83.5238 17.6668 83.2625 17.464 83.042" fill="#0097C2"/>
<path d="M17.483 82.783C17.4302 82.8132 17.3737 82.8367 17.315 82.853L16.815 83.025L16.456 83.143C16.326 83.191 16.186 83.243 16.036 83.308C15.736 83.429 15.4 83.55 15.022 83.728L14.443 83.992C14.243 84.084 14.043 84.199 13.826 84.31C13.397 84.52 12.964 84.79 12.5 85.064C10.5183 86.2933 8.7549 87.8438 7.28203 89.652C6.96403 90.075 6.63003 90.472 6.36603 90.873C6.22903 91.073 6.09303 91.255 5.97203 91.442L5.65403 91.983C5.43103 92.323 5.26603 92.654 5.10703 92.937C5.03103 93.077 4.95403 93.207 4.89103 93.331C4.82803 93.455 4.77703 93.566 4.72903 93.671L4.49403 94.142C4.47184 94.1988 4.44189 94.2523 4.40503 94.301C4.42063 94.2417 4.44207 94.184 4.46903 94.129L4.67603 93.646C4.72403 93.546 4.77603 93.427 4.82903 93.299C4.88203 93.171 4.96303 93.041 5.03603 92.899C5.18903 92.61 5.35403 92.263 5.56403 91.929C5.67203 91.754 5.78003 91.57 5.88203 91.379C5.98403 91.188 6.13603 91.004 6.27003 90.803C6.53103 90.396 6.85203 89.995 7.17903 89.566C7.92033 88.6549 8.73289 87.8042 9.60903 87.022C10.4947 86.2525 11.4411 85.5559 12.439 84.939C12.906 84.666 13.345 84.398 13.778 84.192C13.994 84.084 14.198 83.973 14.414 83.874L15.002 83.62C15.374 83.445 15.724 83.331 16.029 83.22C16.182 83.166 16.322 83.112 16.455 83.067L16.818 82.959L17.324 82.816C17.3772 82.8023 17.4314 82.7926 17.486 82.787L17.483 82.783Z" fill="#263238"/>
<path d="M9.19002 87.273C8.34461 87.595 7.48274 87.8721 6.60802 88.103C5.74629 88.3831 4.86918 88.6135 3.98102 88.793C4.82642 88.4709 5.6883 88.1938 6.56302 87.963C7.42527 87.6846 8.30228 87.4543 9.19002 87.273Z" fill="#263238"/>
<path d="M9.08198 92.959C9.03895 92.6946 9.01988 92.4268 9.02498 92.159V90.212C9.02498 89.455 9.08898 88.765 9.12498 88.269C9.13097 87.9996 9.16447 87.7315 9.22498 87.469C9.24639 87.7379 9.24639 88.0081 9.22498 88.277C9.20598 88.821 9.18698 89.482 9.16498 90.217C9.14298 90.952 9.12998 91.617 9.11398 92.157C9.12566 92.4242 9.11294 92.692 9.07598 92.957L9.08198 92.959Z" fill="#263238"/>
<path d="M13.966 90.485C13.925 90.485 13.794 89.085 13.677 87.362C13.56 85.639 13.493 84.233 13.534 84.233C13.575 84.233 13.703 85.626 13.823 87.353C13.943 89.08 14.007 90.482 13.966 90.485Z" fill="#263238"/>
<path d="M7.888 84.096C8.16225 84.0614 8.43916 84.0531 8.715 84.071C9.224 84.071 9.93 84.09 10.709 84.116C11.488 84.142 12.191 84.173 12.7 84.202C12.9764 84.2054 13.252 84.2318 13.524 84.281C13.2497 84.3155 12.9728 84.3239 12.697 84.306C12.188 84.306 11.482 84.29 10.703 84.261C9.924 84.232 9.221 84.204 8.709 84.175C8.43389 84.1716 8.15957 84.1448 7.889 84.095L7.888 84.096Z" fill="#263238"/>
<path d="M20.094 101.634C20.0799 101.578 20.0735 101.52 20.075 101.462C20.0772 101.301 20.0699 101.139 20.053 100.979C20.034 100.556 20.031 99.949 20.053 99.192C20.075 98.435 20.117 97.541 20.206 96.549C20.295 95.557 20.441 94.466 20.642 93.331C20.843 92.196 21.09 91.131 21.342 90.151C21.594 89.171 21.867 88.329 22.115 87.607C22.363 86.885 22.573 86.335 22.751 85.934C22.827 85.749 22.888 85.616 22.939 85.486C22.9584 85.4328 22.9829 85.3815 23.012 85.333C23.0049 85.3892 22.9887 85.4439 22.964 85.495L22.783 85.962C22.637 86.356 22.436 86.916 22.204 87.647C21.972 88.378 21.718 89.237 21.466 90.191C21.214 91.145 20.979 92.22 20.776 93.352C20.573 94.484 20.436 95.578 20.334 96.552C20.232 97.526 20.175 98.434 20.15 99.185C20.125 99.936 20.109 100.546 20.109 100.969V101.452C20.1089 101.512 20.1045 101.571 20.096 101.63L20.094 101.634Z" fill="#263238"/>
<path d="M20.742 93.211C20.5977 93.4086 20.4324 93.5899 20.249 93.752C19.931 94.07 19.476 94.496 18.961 94.952C18.446 95.408 17.961 95.798 17.6 96.075C17.4155 96.2348 17.2144 96.3742 17 96.491C17.1617 96.3077 17.3405 96.1403 17.534 95.991L18.86 94.84L20.176 93.676C20.3485 93.5038 20.537 93.3484 20.739 93.212L20.742 93.211Z" fill="#263238"/>
<path d="M24.651 96.352C24.4575 96.1242 24.282 95.8819 24.126 95.627L22.908 93.852L21.661 92.09C21.4759 91.8549 21.3087 91.6062 21.161 91.346C21.3763 91.5539 21.5711 91.7819 21.743 92.027C22.086 92.463 22.543 93.073 23.015 93.77C23.487 94.467 23.915 95.106 24.201 95.576C24.3744 95.8221 24.5244 96.0839 24.649 96.358L24.651 96.352Z" fill="#263238"/>
<path d="M22.603 86.452C22.625 86.487 21.331 87.362 19.703 88.404C18.075 89.446 16.746 90.267 16.723 90.232C16.7 90.197 17.995 89.322 19.623 88.28C21.251 87.238 22.584 86.424 22.603 86.452Z" fill="#263238"/>
<path d="M26.278 90.415C25.5927 89.8443 24.9378 89.2382 24.316 88.599C23.6613 87.9977 23.0404 87.3608 22.456 86.691C23.1437 87.26 23.7997 87.8662 24.421 88.507C25.0762 89.1067 25.6962 89.7438 26.278 90.415Z" fill="#263238"/>
<path d="M27.185 90.329L28.298 90.237C29.0893 90.1721 29.8573 89.9367 30.549 89.547C30.8875 89.3496 31.2378 89.1732 31.598 89.019C33.026 88.6041 34.5123 88.4257 35.998 88.491C38.4273 88.3692 40.8076 87.7616 42.998 86.704C43.1295 86.6459 43.2404 86.5493 43.316 86.427C43.545 86.01 43.116 85.638 42.753 85.413C40.9294 84.1678 38.9364 83.1911 36.835 82.513C35.7811 82.1804 34.6683 82.0774 33.5713 82.2107C32.4743 82.344 31.4185 82.7107 30.475 83.286C28.344 84.755 27.565 87.77 27.206 90.333" fill="#0097C2"/>
<path d="M43.32 86.281C43.2558 86.2547 43.193 86.225 43.132 86.192L42.604 85.915C42.146 85.673 41.488 85.315 40.651 84.915C39.6826 84.4368 38.6728 84.0476 37.634 83.752C36.3635 83.3867 35.0328 83.2786 33.72 83.434C32.4051 83.5802 31.1632 84.1137 30.152 84.967C29.3622 85.7007 28.7303 86.5878 28.295 87.574C27.991 88.237 27.7213 88.9152 27.487 89.606L27.287 90.169C27.2674 90.2357 27.242 90.3006 27.211 90.363C27.2205 90.2949 27.2366 90.2279 27.259 90.163C27.304 90.02 27.359 89.829 27.431 89.594C27.6432 88.8994 27.896 88.2179 28.188 87.553C28.6164 86.5436 29.2509 85.6348 30.051 84.885C31.0765 84.0017 32.3442 83.4476 33.689 83.295C35.0199 83.1341 36.3696 83.2422 37.658 83.613C38.703 83.9191 39.7176 84.3207 40.689 84.813C41.519 85.226 42.171 85.595 42.622 85.853L43.137 86.153C43.2032 86.1877 43.2647 86.2307 43.32 86.281Z" fill="#263238"/>
<path d="M40.642 87.728C40.62 87.76 39.16 86.818 37.386 85.623C35.612 84.428 34.186 83.429 34.206 83.397C34.226 83.365 35.685 84.307 37.459 85.502C39.233 86.697 40.668 87.693 40.642 87.728Z" fill="#263238"/>
<path d="M39.247 83.252C38.5042 83.4855 37.7201 83.5581 36.947 83.465C37.3249 83.3861 37.7091 83.3413 38.095 83.331C38.476 83.2714 38.8615 83.2449 39.247 83.252Z" fill="#263238"/>
<path d="M32.712 82.083C32.434 82.7411 32.0695 83.3592 31.628 83.921C31.7418 83.5823 31.9024 83.2612 32.105 82.967C32.2644 82.645 32.4688 82.3474 32.712 82.083Z" fill="#263238"/>
<path d="M34.016 88.587C33.77 88.4844 33.5353 88.3564 33.316 88.205C32.893 87.951 32.324 87.569 31.726 87.133C31.128 86.697 30.584 86.274 30.197 85.969C29.9813 85.8154 29.7804 85.642 29.597 85.451C29.8333 85.5741 30.0571 85.7202 30.265 85.887L31.82 87.016C32.42 87.455 32.981 87.84 33.388 88.116C33.6122 88.2529 33.824 88.4092 34.021 88.583L34.016 88.587Z" fill="#263238"/>
<path d="M28.823 95.064C28.2481 95.001 27.6702 95.1528 27.2006 95.4903C26.7309 95.8278 26.4027 96.327 26.279 96.892C26.1575 97.9948 26.3878 99.1079 26.937 100.072C27.9499 102.296 29.4523 104.262 31.332 105.824C33.2279 107.379 35.5935 108.247 38.045 108.289C37.597 106.203 38.163 104.021 37.915 101.9C37.6934 100.032 36.8446 98.2939 35.5074 96.9707C34.1701 95.6474 32.4235 94.8169 30.553 94.615C29.876 94.542 29.09 94.437 28.82 95.063" fill="#0097C2"/>
<path d="M38.042 108.29C37.9886 108.272 37.9373 108.249 37.889 108.22C37.7491 108.141 37.6154 108.052 37.489 107.953C37.0441 107.566 36.6866 107.089 36.44 106.553C36.272 106.235 36.081 105.866 35.896 105.469C35.711 105.072 35.527 104.652 35.324 104.197C35.1209 103.731 34.887 103.28 34.624 102.845C34.3409 102.382 34.022 101.942 33.67 101.529C32.945 100.677 32.163 99.939 31.485 99.229C30.8728 98.6118 30.3154 97.9426 29.819 97.229C29.4865 96.745 29.2133 96.2229 29.005 95.674C28.938 95.48 28.887 95.324 28.862 95.219C28.8444 95.1666 28.8336 95.1121 28.83 95.057C28.83 95.057 28.903 95.273 29.059 95.657C29.2858 96.1915 29.5695 96.7001 29.905 97.174C30.4106 97.8724 30.9721 98.5286 31.584 99.136C32.265 99.836 33.05 100.574 33.784 101.436C34.1441 101.854 34.4705 102.301 34.76 102.771C35.0221 103.213 35.2559 103.671 35.46 104.142L36.02 105.414C36.198 105.808 36.382 106.171 36.548 106.498C36.7802 107.03 37.1177 107.509 37.54 107.907C37.851 108.175 38.061 108.277 38.042 108.29Z" fill="#263238"/>
<path d="M32.553 106.557C32.5598 106.315 32.5934 106.075 32.653 105.841C32.736 105.402 32.872 104.801 33.053 104.146C33.234 103.491 33.435 102.909 33.594 102.493C33.6633 102.261 33.7604 102.039 33.883 101.831C33.84 102.067 33.776 102.299 33.692 102.524C33.559 102.95 33.374 103.536 33.192 104.187C33.01 104.838 32.874 105.431 32.747 105.863C32.7033 106.1 32.6363 106.333 32.547 106.557H32.553Z" fill="#263238"/>
<path d="M37.851 101.434C37.5967 101.396 37.3458 101.338 37.101 101.259C36.643 101.141 36.01 100.976 35.308 100.817C34.606 100.658 33.963 100.537 33.499 100.448C33.2446 100.415 32.9935 100.36 32.749 100.282C33.0059 100.276 33.2627 100.297 33.515 100.346C33.986 100.406 34.634 100.515 35.34 100.664C35.9449 100.795 36.5424 100.957 37.13 101.151C37.38 101.22 37.622 101.314 37.852 101.434H37.851Z" fill="#263238"/>
<path d="M28.61 102.922C28.6221 102.642 28.6606 102.364 28.725 102.092C28.825 101.586 28.967 100.892 29.167 100.127C29.367 99.362 29.577 98.683 29.743 98.193C29.8246 97.924 29.931 97.6632 30.061 97.414C30.0159 97.6892 29.949 97.9604 29.861 98.225C29.721 98.725 29.524 99.405 29.327 100.162C29.13 100.919 28.964 101.615 28.847 102.114C28.7928 102.389 28.7151 102.66 28.615 102.922H28.61Z" fill="#263238"/>
<path d="M35.411 96.969C35.411 97.007 34.079 96.902 32.447 96.727C30.815 96.552 29.493 96.3799 29.499 96.3419C30.4904 96.3706 31.4797 96.4504 32.463 96.581C33.4516 96.66 34.4356 96.7895 35.411 96.969Z" fill="#263238"/>
<path d="M34.442 113.06C34.442 113.101 29.777 113.133 24.025 113.133C18.273 113.133 13.607 113.101 13.607 113.06C13.607 113.019 18.272 112.986 24.025 112.986C29.778 112.986 34.442 113.018 34.442 113.06Z" fill="#455A64"/>
<path d="M31.196 119.06C31.196 119.102 28.051 119.137 24.175 119.137C20.299 119.137 17.157 119.102 17.157 119.06C17.157 119.018 20.299 118.987 24.175 118.987C28.051 118.987 31.196 119.035 31.196 119.06Z" fill="#455A64"/>
<path d="M31.316 119.919C31.316 119.96 28.174 119.992 24.298 119.992C20.422 119.992 17.28 119.96 17.28 119.919C17.28 119.878 20.422 119.846 24.298 119.846C28.174 119.846 31.316 119.878 31.316 119.919Z" fill="#455A64"/>
<path d="M31.316 118.352C31.316 118.394 28.066 118.426 24.056 118.426C20.046 118.426 16.796 118.394 16.796 118.352C16.796 118.31 20.046 118.279 24.056 118.279C28.066 118.279 31.316 118.313 31.316 118.352Z" fill="#455A64"/>
</svg>
