<svg width="40" height="40" viewBox="0 0 40 40" fill="none" xmlns="http://www.w3.org/2000/svg">
<path d="M20 40C31.0457 40 40 31.0457 40 20C40 8.9543 31.0457 0 20 0C8.9543 0 0 8.9543 0 20C0 31.0457 8.9543 40 20 40Z" fill="#E1ECF9"/>
<path d="M25.375 29H15.625C15.1975 29.0029 14.7862 28.8361 14.4816 28.5361C14.1769 28.2361 14.0037 27.8275 14 27.4V20.18H27V27.4C26.996 27.8275 26.8228 28.2359 26.5182 28.5358C26.2136 28.8357 25.8025 29.0027 25.375 29ZM17.25 22.2V26.2H18.875V22.2H17.25ZM14 18.607V14.6C14.0037 14.1725 14.1769 13.7639 14.4816 13.4639C14.7862 13.1639 15.1975 12.9971 15.625 13L25.375 13.008C25.8042 13.006 26.217 13.173 26.524 13.473C26.675 13.6193 26.7949 13.7944 26.8767 13.9881C26.9585 14.1817 27.0004 14.3898 27 14.6V18.6L14 18.607ZM17.25 14.6V17H18.875V14.6H17.25Z" fill="#4A6585"/>
</svg>
