<svg width="40" height="40" viewBox="0 0 40 40" fill="none" xmlns="http://www.w3.org/2000/svg">
<path d="M20 40C31.0457 40 40 31.0457 40 20C40 8.9543 31.0457 0 20 0C8.9543 0 0 8.9543 0 20C0 31.0457 8.9543 40 20 40Z" fill="#E1ECF9"/>
<path d="M16.68 25.694C16.3578 25.694 16.0428 25.7895 15.7749 25.9685C15.5071 26.1475 15.2983 26.4019 15.175 26.6996C15.0517 26.9973 15.0194 27.3248 15.0823 27.6408C15.1451 27.9568 15.3003 28.2471 15.5281 28.4749C15.7559 28.7027 16.0462 28.8578 16.3622 28.9207C16.6782 28.9835 17.0057 28.9513 17.3034 28.828C17.601 28.7047 17.8554 28.4959 18.0344 28.228C18.2134 27.9601 18.309 27.6452 18.309 27.323C18.3099 27.1088 18.2684 26.8966 18.1869 26.6985C18.1053 26.5005 17.9854 26.3205 17.8339 26.1691C17.6825 26.0176 17.5025 25.8976 17.3045 25.8161C17.1064 25.7346 16.8942 25.6931 16.68 25.694ZM11.793 12.661V14.29H13.422L16.35 20.468L15.25 22.468C15.1192 22.7094 15.0505 22.9795 15.05 23.254C15.05 23.4679 15.0921 23.6797 15.174 23.8774C15.2558 24.075 15.3758 24.2546 15.5271 24.4059C15.6784 24.5571 15.8579 24.6771 16.0556 24.759C16.2532 24.8409 16.465 24.883 16.679 24.883H26.454V23.25H17.027C16.9739 23.25 16.9231 23.2289 16.8855 23.1914C16.848 23.1539 16.827 23.103 16.827 23.05C16.8258 23.0151 16.8341 22.9805 16.851 22.95L17.58 21.622H23.648C23.9387 21.6215 24.2239 21.5436 24.4744 21.3961C24.7249 21.2486 24.9315 21.037 25.073 20.783L27.985 15.497C28.0517 15.3776 28.0862 15.2428 28.085 15.106C28.0851 14.9989 28.0641 14.8929 28.0232 14.794C27.9823 14.695 27.9223 14.6051 27.8466 14.5294C27.7709 14.4537 27.681 14.3937 27.582 14.3528C27.4831 14.3119 27.377 14.2909 27.27 14.291H15.226L14.453 12.661H11.793ZM24.826 25.694C24.5038 25.694 24.1888 25.7895 23.9209 25.9685C23.6531 26.1475 23.4443 26.4019 23.321 26.6996C23.1977 26.9973 23.1654 27.3248 23.2283 27.6408C23.2911 27.9568 23.4463 28.2471 23.6741 28.4749C23.9019 28.7027 24.1922 28.8578 24.5082 28.9207C24.8242 28.9835 25.1517 28.9513 25.4494 28.828C25.747 28.7047 26.0014 28.4959 26.1804 28.228C26.3594 27.9601 26.455 27.6452 26.455 27.323C26.4559 27.1088 26.4144 26.8966 26.3329 26.6985C26.2513 26.5005 26.1314 26.3205 25.9799 26.1691C25.8285 26.0176 25.6485 25.8976 25.4505 25.8161C25.2524 25.7346 25.0402 25.6931 24.826 25.694Z" fill="#4A6585"/>
</svg>
